<?xml version="1.0" standalone="yes"?>

<svg version="1.1" viewBox="0.0 0.0 960.0 540.0" fill="none" stroke="none" stroke-linecap="square" stroke-miterlimit="10" xmlns="http://www.w3.org/2000/svg" xmlns:xlink="http://www.w3.org/1999/xlink"><clipPath id="p.0"><path d="m0 0l960.0 0l0 540.0l-960.0 0l0 -540.0z" clip-rule="nonzero"></path></clipPath><g clip-path="url(#p.0)"><path fill="#4285f4" d="m0 0l960.0 0l0 540.0l-960.0 0z" fill-rule="evenodd"></path><path fill="#ffffff" d="m960.0 540.0026l0 -94.236206l-94.236206 94.236206z" fill-rule="evenodd"></path><path fill="#ffffff" fill-opacity="0.6808" d="m960.0 445.76117l-78.52985 0l0 0c-4.1655884 0 -8.1605835 1.6547546 -11.106079 4.600281c-2.9454956 2.9454956 -4.600281 6.94046 -4.600281 11.106049l0 78.52988l94.236206 0z" fill-rule="evenodd"></path><path fill="#000000" fill-opacity="0.0" d="m487.3386 103.301834l472.6614 0l0 98.01575l-472.6614 0z" fill-rule="evenodd"></path><path fill="#ffffff" d="m509.5886 177.97633q-1.46875 0 -2.75 -0.625q-1.28125 -0.625 -2.125 -1.65625q-0.8125 -0.96875 -1.46875 -2.375q-0.65625 -1.40625 -1.03125 -2.8125q-0.34375 -1.21875 -0.59375 -2.78125q-0.25 -1.5625 -0.34375 -2.65625q-0.0625 -0.71875 -0.125 -2.03125l-0.0625 -1.0625q-0.3125 -3.03125 -0.796875 -13.75q-0.484375 -10.71875 -0.484375 -16.71875l0 -0.4375q-0.03125 -0.21875 -0.03125 -0.53125q0 -1.65625 1.0 -1.65625q0.75 0 1.03125 0.375q0.28125 0.375 0.28125 1.15625l0 0.46875q-0.03125 0.21875 -0.03125 0.5q0 7.5 0.4375 17.625q0.4375 10.125 0.90625 14.5625q0.25 2.78125 1.0625 5.78125q0.5 1.96875 1.125 3.296875q0.625 1.328125 1.59375 2.265625q1.0 1.0 2.1875 1.0q1.09375 0 1.953125 -0.5q0.8593445 -0.5 1.3593445 -1.3125q0.4375 -0.6875 0.71875 -1.796875q0.28125 -1.109375 0.375 -2.203125q0.0625 -1.25 0.0625 -2.125l0 -7.28125q0 -4.0625 -0.28125 -11.96875l-0.28125 -8.1875q0 -2.21875 -0.125 -5.4375q-0.15625 -4.0 -0.15625 -5.4375q0 -0.6875 0.359375 -1.09375q0.359375 -0.40625 0.890625 -0.40625q0.53125 0 0.890625 0.40625q0.359375 0.40625 0.359375 1.09375l0 4.84375q0 3.21875 0.03125 5.78125l0 5.75q0 4.625 0.125 10.90625q0.09375 7.0625 0.09375 10.59375q0 1.53125 -0.125 2.75q-0.125 1.21875 -0.5 2.625q-0.40625 1.5625 -1.0625 2.609375q-0.65625 1.046875 -1.78125 1.734375q-1.1874695 0.71875 -2.6874695 0.71875zm31.43747 -0.96875q-0.46875 0 -0.71875 -0.390625q-0.25 -0.390625 -0.40625 -1.140625q-0.125 -0.65625 -0.28125 -0.90625l0.0625 -0.1875q-0.4375 -2.8125 -2.125 -7.34375q-0.875 -2.375 -1.1875 -3.34375q-0.21875 -0.25 -1.71875 -4.78125q-5.75 -17.84375 -7.25 -19.28125q-0.5 1.90625 -0.5 4.5l0.0625 2.53125l0.0625 2.5l-0.0625 1.5625l-0.0625 1.53125q0 1.03125 0.125 2.40625l0.125 2.0625l-0.1875 0q0 10.625 0.4375 11.78125l0 5.75q0.25 0.4375 0.25 1.34375q0 0.5 -0.328125 0.890625q-0.328125 0.390625 -0.859375 0.390625q-1.34375 0 -1.34375 -3.4375q0 -0.84375 0.125 -2.09375q0.125 -1.21875 0.125 -2.09375q0 -3.09375 -0.1875 -9.21875q-0.21875 -5.6875 -0.21875 -9.1875q0 -2.15625 0.21875 -5.6875q0.1875 -3.8125 0.1875 -5.65625l0 -0.8125q0 -3.15625 1.15625 -4.125l0.1875 0.21875l0.625 -0.15625q0.3125 0.125 0.59375 0.40625q0.15625 0.21875 0.28125 0.5625l0.09375 0.375l0.0625 0.34375q1.09375 4.59375 4.59375 12.71875q3.40625 7.90625 4.5625 11.46875q0.4375 1.34375 1.03125 3.9375q0.625 2.8125 1.296875 4.828125q0.671875 2.015625 1.578125 3.578125l0.125 -0.1875q1.46875 -14.125 1.46875 -34.875l-0.0625 -0.78125l-0.0625 -0.8125q0 -1.34375 0.90625 -1.34375q0.59375 0 1.0 0.578125q0.40625 0.578125 0.40625 1.265625l0 4.28125l-0.34375 0.53125q0 3.5 -0.34375 11.875q-0.34375 8.375 -0.8125 15.375q-0.46875 7.0 -0.875 7.8125q-0.34375 0.0625 -1.09375 0.28125l0 0.03125l-0.03125 -0.03125q-0.5625 0.15625 -0.6875 0.15625zm16.65625 -0.25q-1.5 0 -1.75 -0.625q-0.3125 0 -0.53125 0.03125q-0.25 0.03125 -0.53125 0.03125q-1.375 0 -1.75 -0.65625q0 -0.25 0.09375 -0.40625q0.09375 -0.15625 0.375 -0.34375l0.375 -0.34375l1.84375 0l0.25 -0.25q0 -0.125 0.125 -0.59375q0.09375 -0.53125 0.09375 -0.75q0 -2.65625 -0.21875 -7.0q-0.25 -4.9375 -0.25 -7.0q0 -1.9375 0.15625 -7.5q0.15625 -5.53125 0.15625 -7.4375q0 -4.5 -0.3125 -7.40625q-0.59375 -0.1875 -1.90625 -0.1875l-0.75 0.0625l-0.78125 0.0625q-1.21875 0 -1.21875 -1.09375q0 -0.25 0.5625 -0.515625q0.5625 -0.265625 0.96875 -0.265625q2.09375 0 4.84375 0.25q1.65625 0.125 2.9375 0.59375q1.125 0.40625 1.125 1.09375q0 0.125 -0.15625 0.5l-1.46875 0.125q-0.5 -0.375 -1.84375 -0.375l-0.3125 0.1875q0.1875 0.5625 0.1875 3.40625q0 2.53125 -0.09375 7.59375q-0.09375 5.09375 -0.09375 7.625q0 2.65625 0.21875 7.0q0.21875 4.375 0.21875 7.03125l-0.03125 0.8125q-0.03125 0.46875 -0.03125 1.15625q0 1.5 0.1875 1.78125l-0.0625 0.15625q0 0.625 1.40625 0.625q0.53125 0 0.9375 -0.03125q0.40625 -0.03125 0.9375 -0.03125q1.90625 0 1.90625 0.90625q0 0.5625 -0.40625 0.921875q-0.40625 0.359375 -1.0 0.359375q-0.4375 0 -1.0625 -0.125q-0.6875 -0.09375 -1.0625 -0.09375q-0.4375 0 -1.1875 0.34375q-0.6875 0.375 -1.09375 0.375zm16.65625 0.1875q0 -5.0 -1.5625 -14.609375q-1.5625 -9.609375 -4.125 -20.890625l-0.53125 -2.0l-0.8125 -2.9375q-0.375 -1.375 -0.375 -1.65625q0 -0.21875 0.28125 -0.5q0.28125 -0.28125 0.53125 -0.28125q0.4375 0 0.796875 0.53125q0.359375 0.53125 0.640625 1.4375q0.34375 1.1875 0.78125 3.4375q0.03125 0.15625 0.21875 1.125q0.65625 2.53125 1.46875 6.28125l0.65625 3.28125q0.34375 2.0625 0.5625 3.03125q0.25 1.125 0.5625 3.28125q0 0 0.5 3.0q0.21875 1.3125 0.4375 2.796875q0.21875 1.484375 0.375 2.421875l0.15625 1.0625q0.0625 0.625 0.46875 3.28125l0.4375 3.125q1.28125 -4.28125 2.1875 -12.6875q0.90625 -7.75 2.5625 -15.9375q1.6875 -8.375 1.96875 -10.03125l0.84375 -0.34375q0.25 0.09375 0.484375 0.28125q0.234375 0.1875 0.234375 0.375q0 1.28125 -0.59375 3.8125l-0.375 1.6875l-1.125 5.0625q-0.9375 4.15625 -1.296875 6.390625q-0.359375 2.234375 -0.765625 6.484375q-0.0625 0.5 -0.0625 0.75q-0.375 3.84375 -0.5625 5.125q-0.1875 1.28125 -0.75 3.40625q-0.65625 2.625 -0.8125 3.375q-0.09375 0.78125 -0.125 1.4375q-0.15625 2.375 -0.53125 4.0q-0.25 1.03125 -0.765625 1.609375q-0.515625 0.578125 -1.265625 0.578125l-0.71875 -0.59375zm1.40625 -4.34375l0 -0.25l-0.0625 0.125l0.0625 0.125zm17.59375 5.0q-1.1875 0 -1.28125 -1.34375q0 -0.4375 0.03125 -0.8125q0.03125 -0.375 0.03125 -0.8125l-0.21875 -0.25q0.46875 -1.28125 0.46875 -2.625q0 -1.09375 -0.15625 -4.21875q-0.15625 -3.125 -0.15625 -4.21875q0 -3.625 0.21875 -9.625q0.21875 -6.0 0.21875 -9.65625q0 -1.5625 -0.125 -3.84375q-0.125 -2.25 -0.125 -3.8125q0 -0.9375 0.421875 -1.375q0.421875 -0.4375 1.421875 -0.4375q0.71875 0 1.03125 0.40625q0.40625 0.09375 1.875 0.25q1.59375 0.1875 2.78125 0.5625q1.1875 0.375 1.1875 0.96875q0 0.59375 -1.1875 1.28125q-3.5 -1.15625 -5.1875 -1.21875l-0.3125 0.375q0.0625 1.1875 0.0625 2.75q0 2.0 -0.125 4.96875q-0.125 2.96875 -0.125 4.96875q0 1.78125 0.90625 1.78125l1.0625 -0.0625q0.9375 -0.0625 1.09375 -0.0625q2.46875 0 2.5 1.15625q0 0.6875 -0.34375 1.171875q-0.34375 0.484375 -0.9375 0.484375q-1.0625 0 -1.46875 -0.5l-2.09375 -0.3125l-0.28125 0l-0.3125 0.3125l0 0.1875q0.125 1.46875 0.125 5.0625l-0.0625 4.53125l-0.0625 4.5625q0 2.5 0.1875 5.09375q0.09375 1.46875 0.65625 1.953125q0.5625 0.484375 2.09375 0.484375l1.15625 -0.0625l1.21875 -0.0625q1.875 0 1.875 0.84375q0 1.15625 -2.78125 1.15625l-5.28125 0zm24.9375 -0.0625q-0.75 -0.84375 -1.640625 -4.421875q-0.890625 -3.578125 -1.640625 -8.078125q-0.625 -3.78125 -1.46875 -7.21875q-0.78125 -3.21875 -1.46875 -3.21875l-0.25 0q-1.40625 0 -1.40625 0.90625q0 3.46875 0.5625 14.03125q0.21875 5.65625 0.53125 6.71875l-0.46875 1.0625l-0.9375 0l-0.46875 -0.5q-1.03125 -27.6875 -1.03125 -40.3125q0 -0.78125 0.078125 -1.1875q0.078125 -0.40625 0.390625 -0.8125q0.34375 -0.4375 0.9375 -0.4375q3.21875 0 5.203125 1.625q1.984375 1.625 1.984375 4.59375l0 4.65625q0 1.1875 -0.765625 3.1875q-0.765625 2.0 -1.734375 3.84375q-0.84375 1.53125 -0.84375 1.625q0 0.21875 2.4375 10.21875q2.4375 10.0 2.625 10.5q0 0.03125 0.09375 0.234375q0.09375 0.203125 0.4375 0.859375q0.5 0.96875 0.5 1.53125q0 0.90625 -0.71875 0.90625l-0.9375 -0.3125zm-7.5 -24.53125q1.1875 0 2.171875 -1.234375q0.984375 -1.234375 1.484375 -3.109375q0.5 -1.78125 0.765625 -3.4375q0.265625 -1.65625 0.265625 -2.78125q0 -1.46875 -0.140625 -2.4375q-0.140625 -0.96875 -0.515625 -2.03125q-0.40625 -1.09375 -1.328125 -1.671875q-0.921875 -0.578125 -2.328125 -0.578125q-0.34375 0 -0.546875 0.546875q-0.203125 0.546875 -0.203125 1.109375q0 3.15625 0.125 7.75q0.125 4.59375 0.125 7.75l0.125 0.125zm17.0 24.53125q-0.75 -0.125 -1.359375 -0.546875q-0.609375 -0.421875 -0.703125 -1.015625l0.3125 -0.5q0.5 0.0625 1.125 0.21875q0.75 0.21875 1.1875 0.21875q1.4375 0 2.515625 -1.109375q1.078125 -1.109375 1.609375 -2.921875q0.9375 -3.1875 0.9375 -6.25q0 -2.375 -0.75 -4.8125q-0.75 -2.4375 -1.96875 -4.65625l-0.75 -1.34375q-1.34375 -2.4375 -2.09375 -3.9375q-0.75 -1.5 -1.3125 -3.34375q-0.8125 -2.53125 -0.8125 -5.09375q0 -1.15625 0.296875 -2.578125q0.296875 -1.421875 0.859375 -2.828125q0.59375 -1.5 1.625 -2.421875q1.03125 -0.921875 2.28125 -0.921875q0.78125 0 1.609375 0.5625q0.828125 0.5625 0.828125 1.21875q0 0.5 -0.84375 0.5q-0.21875 0 -0.65625 -0.1875q-0.40625 -0.1875 -0.6875 -0.1875q-0.96875 0 -1.71875 0.765625q-0.75 0.765625 -1.15625 2.015625q-0.78125 2.34375 -0.78125 4.3125q0 1.25 0.3125 2.5l0.21875 1.0625q0.03125 0.28125 0.375 1.28125l0.3125 1.125l0.46875 1.15625l1.125 1.96875l0.5 0.84375q0.875 1.46875 1.46875 2.53125q0.59375 1.0625 1.1875 2.34375q0.625 1.375 0.9375 2.53125q0.3125 1.15625 0.5625 2.84375q0.21875 1.53125 0.21875 3.5q0 3.21875 -0.875 5.75q-0.5625 1.59375 -1.328125 2.703125q-0.765625 1.109375 -1.953125 1.796875q-1.25 0.75 -2.8125 0.75l-0.3125 0.15625zm5.09375 -41.75q0 -0.0625 -0.0625 -0.0625l0 0.0625l0.0625 0zm11.125 41.8125q-1.1875 0 -1.28125 -1.34375q0 -0.4375 0.03125 -0.8125q0.03125 -0.375 0.03125 -0.8125l-0.21875 -0.25q0.46875 -1.28125 0.46875 -2.625q0 -1.09375 -0.15625 -4.21875q-0.15625 -3.125 -0.15625 -4.21875q0 -3.625 0.21875 -9.625q0.21875 -6.0 0.21875 -9.65625q0 -1.5625 -0.125 -3.84375q-0.125 -2.25 -0.125 -3.8125q0 -0.9375 0.421875 -1.375q0.421875 -0.4375 1.421875 -0.4375q0.71875 0 1.03125 0.40625q0.40625 0.09375 1.875 0.25q1.59375 0.1875 2.78125 0.5625q1.1875 0.375 1.1875 0.96875q0 0.59375 -1.1875 1.28125q-3.5 -1.15625 -5.1875 -1.21875l-0.3125 0.375q0.0625 1.1875 0.0625 2.75q0 2.0 -0.125 4.96875q-0.125 2.96875 -0.125 4.96875q0 1.78125 0.90625 1.78125l1.0625 -0.0625q0.9375 -0.0625 1.09375 -0.0625q2.46875 0 2.5 1.15625q0 0.6875 -0.34375 1.171875q-0.34375 0.484375 -0.9375 0.484375q-1.0625 0 -1.46875 -0.5l-2.09375 -0.3125l-0.28125 0l-0.3125 0.3125l0 0.1875q0.125 1.46875 0.125 5.0625l-0.0625 4.53125l-0.0625 4.5625q0 2.5 0.1875 5.09375q0.09375 1.46875 0.65625 1.953125q0.5625 0.484375 2.09375 0.484375l1.15625 -0.0625l1.21875 -0.0625q1.875 0 1.875 0.84375q0 1.15625 -2.78125 1.15625l-5.28125 0zm28.625 -0.71875q-1.03125 0 -1.03125 -1.65625l0 -4.75l-0.1875 -3.90625q-0.625 -10.40625 -0.625 -15.40625q0 -1.28125 -0.203125 -6.484375q-0.203125 -5.203125 -0.453125 -10.265625l-0.25 -4.90625l0 -0.40625q0 -0.46875 0.625 -0.625q0.53125 -0.125 2.21875 -0.125l1.4375 0q0.71875 0.03125 1.75 0.03125q0.5 0 0.78125 0.4375q0.28125 0.4375 0.28125 1.03125q0 0.625 -1.1875 0.625l-1.46875 -0.03125l-1.65625 -0.03125q-0.5 0 -0.640625 0.203125q-0.140625 0.203125 -0.140625 1.046875q0 0.6875 0.46875 9.3125q0.46875 8.65625 0.46875 9.40625q0.71875 0 2.15625 -0.375q1.46875 -0.375 2.15625 -0.375q0.375 0 0.6875 0.421875q0.3125 0.421875 0.3125 0.859375q0 0.46875 -0.578125 0.71875q-0.578125 0.25 -1.21875 0.34375q-0.640625 0.09375 -2.171875 0.21875q-1.34375 0.125 -1.34375 0.75q0 3.4375 0.625 10.78125q0.59375 7.0 0.59375 10.78125l-0.1875 0.34375q0.1875 0.46875 0.1875 0.84375q0 1.1875 -1.40625 1.1875zm20.5 1.09375q-7.5 0 -7.5 -23.5625l0 -2.21875q0 -17.84375 4.625 -17.84375q0.3125 0 0.875 0.15625q1.34375 0.46875 2.625 0.6875q1.28125 0.21875 1.40625 0.25q1.25 0.21875 2.4375 2.46875q1.34375 2.3125 2.015625 6.03125q0.671875 3.71875 0.671875 7.78125l-0.125 0.3125l0.0625 3.8125l0.0625 3.8125q0 1.34375 -0.03125 2.734375q-0.03125 1.390625 -0.1875 3.140625q-0.1875 2.0625 -0.484375 3.640625q-0.296875 1.578125 -0.796875 3.203125q-0.5625 1.75 -1.296875 2.921875q-0.734375 1.171875 -1.828125 1.890625q-1.09375 0.78125 -2.53125 0.78125zm-0.25 -1.84375q1.21875 0 2.1875 -0.9375q0.96875 -0.9375 1.53125 -2.625q1.1875 -3.5 1.46875 -7.28125q0.25 -3.28125 0.25 -6.125q0 -2.3125 -0.34375 -7.5625q-0.375 -5.03125 -0.375 -7.5625l-0.25 -0.5l0.125 -0.3125q0 -1.84375 -0.71875 -3.421875q-0.71875 -1.578125 -1.953125 -2.53125q-1.234375 -0.953125 -2.703125 -0.953125q-2.9375 0 -3.46875 2.8125q-0.25 1.375 -0.28125 2.75q0 0.3125 -0.015625 1.75q-0.015625 1.4375 -0.125 2.6875q-0.109375 1.25 -0.265625 2.03125q0 0.75 -0.15625 3.0q-0.15625 2.25 -0.15625 3.0l0.0625 2.53125l0.0625 2.53125q0 2.8125 0.53125 6.9375q0.375 2.84375 0.90625 4.828125q0.53125 1.984375 1.4375 3.421875q0.96875 1.53125 2.25 1.53125zm25.53125 1.40625q-0.75 -0.84375 -1.640625 -4.421875q-0.890625 -3.578125 -1.640625 -8.078125q-0.625 -3.78125 -1.46875 -7.21875q-0.78125 -3.21875 -1.46875 -3.21875l-0.25 0q-1.40625 0 -1.40625 0.90625q0 3.46875 0.5625 14.03125q0.21875 5.65625 0.53125 6.71875l-0.46875 1.0625l-0.9375 0l-0.46875 -0.5q-1.03125 -27.6875 -1.03125 -40.3125q0 -0.78125 0.078125 -1.1875q0.078125 -0.40625 0.390625 -0.8125q0.34375 -0.4375 0.9375 -0.4375q3.21875 0 5.203125 1.625q1.984375 1.625 1.984375 4.59375l0 4.65625q0 1.1875 -0.765625 3.1875q-0.765625 2.0 -1.734375 3.84375q-0.84375 1.53125 -0.84375 1.625q0 0.21875 2.4375 10.21875q2.4375 10.0 2.625 10.5q0 0.03125 0.09375 0.234375q0.09375 0.203125 0.4375 0.859375q0.5 0.96875 0.5 1.53125q0 0.90625 -0.71875 0.90625l-0.9375 -0.3125zm-7.5 -24.53125q1.1875 0 2.171875 -1.234375q0.984375 -1.234375 1.484375 -3.109375q0.5 -1.78125 0.765625 -3.4375q0.265625 -1.65625 0.265625 -2.78125q0 -1.46875 -0.140625 -2.4375q-0.140625 -0.96875 -0.515625 -2.03125q-0.40625 -1.09375 -1.328125 -1.671875q-0.921875 -0.578125 -2.328125 -0.578125q-0.34375 0 -0.546875 0.546875q-0.203125 0.546875 -0.203125 1.109375q0 3.15625 0.125 7.75q0.125 4.59375 0.125 7.75l0.125 0.125zm41.5625 27.0625q-1.28125 0 -1.28125 -4.09375l0 -4.1875q0 -9.25 -0.375 -14.4375q-0.09375 -1.21875 -0.25 -2.375q-0.25 -1.9375 -0.25 -2.78125q0 -1.59375 0.125 -3.96875q0.125 -2.375 0.125 -3.96875q0 -2.1875 -0.25 -3.03125q-1.25 0.96875 -7.6875 26.96875q-0.09375 0.46875 -0.125 0.9375q-0.1875 1.53125 -0.5 2.59375q-0.1875 0.65625 -0.53125 1.046875q-0.34375 0.390625 -0.78125 0.390625q-1.03125 0 -1.46875 -0.5q-0.4375 -0.5 -0.4375 -1.59375q0 -1.6875 -1.640625 -8.921875q-1.640625 -7.234375 -3.515625 -13.921875q-1.875 -6.6875 -2.59375 -7.375q-0.15625 3.53125 -0.5625 10.53125q-0.4375 7.78125 -0.640625 13.109375q-0.203125 5.328125 -0.203125 10.078125q0 1.4375 0.0625 2.5625q-0.28125 0.84375 -1.34375 0.84375q-0.21875 0 -0.65625 -0.34375q-0.4375 -0.34375 -0.4375 -0.5625q0 -6.53125 1.0 -20.1875q1.0 -13.65625 1.0 -20.1875q0 -0.21875 -0.1875 -0.625q-0.1875 -0.375 -0.1875 -0.59375q0 -0.96875 1.71875 -0.96875q0.46875 0 0.796875 0.25q0.328125 0.25 0.453125 0.71875q0.25 0.96875 0.28125 1.90625q0.0625 0.8125 0.0625 0.78125q0.3125 1.78125 1.8125 5.125q1.375 3.09375 1.84375 4.78125l0.1875 0.65625q0.03125 0.15625 0.53125 1.84375q0.4375 1.59375 0.8125 3.015625q0.375 1.421875 0.5625 2.484375l0.84375 1.6875q0.15625 0.8125 0.71875 3.125q0.5625 2.21875 0.828125 3.84375q0.265625 1.625 0.296875 3.0625q0.46875 -0.6875 2.21875 -6.734375q1.75 -6.046875 3.515625 -12.84375q1.765625 -6.796875 2.140625 -8.828125q0 0.03125 0.15625 -0.96875q0.09375 -0.75 0.25 -1.296875q0.15625 -0.546875 0.375 -1.171875q0.46875 -1.3125 1.53125 -1.3125q0.4375 0 1.015625 0.390625q0.578125 0.390625 0.578125 0.765625q0 26.8125 0.84375 28.21875l-0.0625 3.34375l-0.0625 3.375q0 3.96875 0.5 6.15625l0.15625 0.5q0.09375 0.375 0.09375 0.59375q0 0.71875 -0.40625 1.40625q-0.40625 0.6875 -1.0 0.6875zm-2.15625 -39.09375l0 -0.125l-0.0625 0l-0.09375 0.0625l0.15625 0.0625zm25.78125 36.34375q-0.6875 0 -0.96875 -0.078125q-0.28125 -0.078125 -0.40625 -0.359375q-0.125 -0.28125 -0.21875 -0.96875l-1.0625 -8.375q-1.15625 -0.3125 -3.15625 -0.3125q-0.71875 0 -2.34375 -0.15625q-1.625 -0.15625 -2.21875 -0.15625q-0.21875 0 -0.3125 0.0625q-0.09375 0.0625 -0.125 0.21875q-0.03125 0.0625 -0.03125 0.125q0 0.0625 -0.03125 0.09375l-0.125 1.28125q-0.15625 1.625 -0.71875 4.59375q-0.34375 1.625 -0.75 2.6875q-0.46875 1.09375 -0.96875 1.09375q-0.40625 0 -0.84375 -0.359375q-0.4375 -0.359375 -0.4375 -0.734375l0.0625 -0.1875l0.0625 -0.1875q1.0625 -4.09375 1.9375 -9.03125l0.71875 -3.96875q0.21875 -1.15625 0.4375 -2.59375l0.375 -2.25l0.6875 -4.21875q0.28125 -1.78125 1.125 -5.59375q0.8125 -3.90625 1.125 -5.9375l0.25 -2.34375l0.125 -1.03125q0.15625 -1.71875 0.3125 -2.59375q0.25 -1.625 0.40625 -1.90625l0.4375 0.03125q0.1875 0.03125 0.4375 0.03125q0.78125 0 1.15625 -0.375q0.4375 0 0.796875 0.28125q0.359375 0.28125 0.359375 0.6875q0 1.8125 0.109375 3.328125q0.109375 1.515625 0.359375 3.703125l0.375 3.375q0.78125 9.03125 3.5625 31.0l0 0.1875q0 0.65625 -0.5 0.9375zm-2.9375 -11.5q-0.46875 -6.71875 -2.4375 -27.21875q-3.3125 16.46875 -3.46875 17.09375q-1.46875 7.28125 -1.46875 9.3125q0 0.3125 2.46875 0.5625q2.46875 0.25 4.25 0.25l0.65625 0zm14.59375 10.03125l-0.0625 -2.34375l-0.0625 -2.3125l0.0625 -1.125l0.0625 -1.125q0 -0.84375 -0.25 -1.53125q0 -5.1875 -0.625 -15.90625q-0.65625 -11.03125 -0.6875 -15.3125q-4.09375 0 -5.3125 -0.21875q-1.3125 -0.25 -1.3125 -1.0q0.28125 -0.71875 1.21875 -0.71875q1.5 0 5.5625 0.28125q3.875 0.3125 5.5625 0.3125l1.375 -0.03125l1.34375 -0.03125q1.15625 0 1.15625 0.8125q0 0.40625 -0.40625 0.625q-0.40625 0.21875 -1.0 0.21875q-0.8125 0 -2.71875 -0.125q-1.90625 -0.125 -2.75 -0.125q-0.1875 0 -0.25 0.1875q-0.0625 0.3125 -0.0625 1.21875q0 6.25 0.75 18.78125q0.75 12.5 0.75 18.78125q0 0.4375 -0.5625 0.828125q-0.5625 0.390625 -1.0625 0.390625l-0.71875 -0.53125zm18.3125 0.90625q-1.5 0 -1.75 -0.625q-0.3125 0 -0.53125 0.03125q-0.25 0.03125 -0.53125 0.03125q-1.375 0 -1.75 -0.65625q0 -0.25 0.09375 -0.40625q0.09375 -0.15625 0.375 -0.34375l0.375 -0.34375l1.84375 0l0.25 -0.25q0 -0.125 0.125 -0.59375q0.09375 -0.53125 0.09375 -0.75q0 -2.65625 -0.21875 -7.0q-0.25 -4.9375 -0.25 -7.0q0 -1.9375 0.15625 -7.5q0.15625 -5.53125 0.15625 -7.4375q0 -4.5 -0.3125 -7.40625q-0.59375 -0.1875 -1.90625 -0.1875l-0.75 0.0625l-0.78125 0.0625q-1.21875 0 -1.21875 -1.09375q0 -0.25 0.5625 -0.515625q0.5625 -0.265625 0.96875 -0.265625q2.09375 0 4.84375 0.25q1.65625 0.125 2.9375 0.59375q1.125 0.40625 1.125 1.09375q0 0.125 -0.15625 0.5l-1.46875 0.125q-0.5 -0.375 -1.84375 -0.375l-0.3125 0.1875q0.1875 0.5625 0.1875 3.40625q0 2.53125 -0.09375 7.59375q-0.09375 5.09375 -0.09375 7.625q0 2.65625 0.21875 7.0q0.21875 4.375 0.21875 7.03125l-0.03125 0.8125q-0.03125 0.46875 -0.03125 1.15625q0 1.5 0.1875 1.78125l-0.0625 0.15625q0 0.625 1.40625 0.625q0.53125 0 0.9375 -0.03125q0.40625 -0.03125 0.9375 -0.03125q1.90625 0 1.90625 0.90625q0 0.5625 -0.40625 0.921875q-0.40625 0.359375 -1.0 0.359375q-0.4375 0 -1.0625 -0.125q-0.6875 -0.09375 -1.0625 -0.09375q-0.4375 0 -1.1875 0.34375q-0.6875 0.375 -1.09375 0.375zm18.3125 1.21875q-7.5 0 -7.5 -23.5625l0 -2.21875q0 -17.84375 4.625 -17.84375q0.3125 0 0.875 0.15625q1.34375 0.46875 2.625 0.6875q1.28125 0.21875 1.40625 0.25q1.25 0.21875 2.4375 2.46875q1.34375 2.3125 2.015625 6.03125q0.671875 3.71875 0.671875 7.78125l-0.125 0.3125l0.0625 3.8125l0.0625 3.8125q0 1.34375 -0.03125 2.734375q-0.03125 1.390625 -0.1875 3.140625q-0.1875 2.0625 -0.484375 3.640625q-0.296875 1.578125 -0.796875 3.203125q-0.5625 1.75 -1.296875 2.921875q-0.734375 1.171875 -1.828125 1.890625q-1.09375 0.78125 -2.53125 0.78125zm-0.25 -1.84375q1.21875 0 2.1875 -0.9375q0.96875 -0.9375 1.53125 -2.625q1.1875 -3.5 1.46875 -7.28125q0.25 -3.28125 0.25 -6.125q0 -2.3125 -0.34375 -7.5625q-0.375 -5.03125 -0.375 -7.5625l-0.25 -0.5l0.125 -0.3125q0 -1.84375 -0.71875 -3.421875q-0.71875 -1.578125 -1.953125 -2.53125q-1.234375 -0.953125 -2.703125 -0.953125q-2.9375 0 -3.46875 2.8125q-0.25 1.375 -0.28125 2.75q0 0.3125 -0.015625 1.75q-0.015625 1.4375 -0.125 2.6875q-0.109375 1.25 -0.265625 2.03125q0 0.75 -0.15625 3.0q-0.15625 2.25 -0.15625 3.0l0.0625 2.53125l0.0625 2.53125q0 2.8125 0.53125 6.9375q0.375 2.84375 0.90625 4.828125q0.53125 1.984375 1.4375 3.421875q0.96875 1.53125 2.25 1.53125zm32.0625 0.875q-0.46875 0 -0.71875 -0.390625q-0.25 -0.390625 -0.40625 -1.140625q-0.125 -0.65625 -0.28125 -0.90625l0.0625 -0.1875q-0.4375 -2.8125 -2.125 -7.34375q-0.875 -2.375 -1.1875 -3.34375q-0.21875 -0.25 -1.71875 -4.78125q-5.75 -17.84375 -7.25 -19.28125q-0.5 1.90625 -0.5 4.5l0.0625 2.53125l0.0625 2.5l-0.0625 1.5625l-0.0625 1.53125q0 1.03125 0.125 2.40625l0.125 2.0625l-0.1875 0q0 10.625 0.4375 11.78125l0 5.75q0.25 0.4375 0.25 1.34375q0 0.5 -0.328125 0.890625q-0.328125 0.390625 -0.859375 0.390625q-1.34375 0 -1.34375 -3.4375q0 -0.84375 0.125 -2.09375q0.125 -1.21875 0.125 -2.09375q0 -3.09375 -0.1875 -9.21875q-0.21875 -5.6875 -0.21875 -9.1875q0 -2.15625 0.21875 -5.6875q0.1875 -3.8125 0.1875 -5.65625l0 -0.8125q0 -3.15625 1.15625 -4.125l0.1875 0.21875l0.625 -0.15625q0.3125 0.125 0.59375 0.40625q0.15625 0.21875 0.28125 0.5625l0.09375 0.375l0.0625 0.34375q1.09375 4.59375 4.59375 12.71875q3.40625 7.90625 4.5625 11.46875q0.4375 1.34375 1.03125 3.9375q0.625 2.8125 1.296875 4.828125q0.671875 2.015625 1.578125 3.578125l0.125 -0.1875q1.46875 -14.125 1.46875 -34.875l-0.0625 -0.78125l-0.0625 -0.8125q0 -1.34375 0.90625 -1.34375q0.59375 0 1.0 0.578125q0.40625 0.578125 0.40625 1.265625l0 4.28125l-0.34375 0.53125q0 3.5 -0.34375 11.875q-0.34375 8.375 -0.8125 15.375q-0.46875 7.0 -0.875 7.8125q-0.34375 0.0625 -1.09375 0.28125l0 0.03125l-0.03125 -0.03125q-0.5625 0.15625 -0.6875 0.15625z" fill-rule="nonzero"></path></g></svg>

