<?xml version="1.0" standalone="yes"?>

<svg version="1.1" viewBox="0.0 0.0 960.0 540.0" fill="none" stroke="none" stroke-linecap="square" stroke-miterlimit="10" xmlns="http://www.w3.org/2000/svg" xmlns:xlink="http://www.w3.org/1999/xlink"><clipPath id="p.0"><path d="m0 0l960.0 0l0 540.0l-960.0 0l0 -540.0z" clip-rule="nonzero"></path></clipPath><g clip-path="url(#p.0)"><path fill="#ffffff" d="m0 0l960.0 0l0 540.0l-960.0 0z" fill-rule="evenodd"></path><path fill="#000000" fill-opacity="0.0" d="m288.0853 197.54855l0 -118.10498l113.55643 0" fill-rule="evenodd"></path><path stroke="#cca677" stroke-width="3.0" stroke-miterlimit="8.0" stroke-linecap="butt" d="m288.0853 197.54855l0 -118.10498l113.55643 0" fill-rule="evenodd"></path><path fill="#000000" fill-opacity="0.0" d="m671.9134 342.96326l0 118.10498l-113.55646 0" fill-rule="evenodd"></path><path stroke="#cca677" stroke-width="3.0" stroke-miterlimit="8.0" stroke-linecap="butt" d="m671.9134 342.96326l0 118.10498l-113.55646 0" fill-rule="evenodd"></path><path fill="#000000" fill-opacity="0.0" d="m319.65353 191.62784l320.6929 0l0 161.38583l-320.6929 0z" fill-rule="evenodd"></path><path fill="#000000" d="m415.00864 232.43803l0 -27.0625l0.453125 0q2.75 0 3.21875 0.390625q0.484375 0.375 0.484375 2.546875l0 24.125q0 4.9375 -0.09375 7.21875q-0.09375 2.265625 -0.609375 5.21875q-0.515625 2.9375 -1.59375 4.078125q-2.75 2.953125 -8.140625 2.953125q-5.375 0 -7.15625 -2.109375q-0.765625 -0.90625 -1.28125 -1.578125q-0.515625 -0.671875 -0.84375 -2.203125q-0.3125 -1.53125 -0.5 -2.515625q-0.1875 -1.0 -0.296875 -3.171875q-0.09375 -2.1875 -0.09375 -3.46875l0 -31.484375l0.453125 0q2.75 0 3.234375 0.390625q0.484375 0.375 0.484375 2.546875l0 24.125q0 0.453125 0 2.46875q0 2.015625 0.03125 3.46875q0.03125 1.4375 0.1875 3.515625q0.15625 2.078125 0.5 2.9375q0.359375 0.859375 1.0 1.828125q1.15625 1.59375 4.296875 1.59375q4.34375 0 5.296875 -3.15625q0.96875 -3.171875 0.96875 -12.65625zm26.295715 16.078125l0 -14.15625q0 -9.78125 -0.578125 -12.046875q-0.5625 -2.28125 -3.453125 -2.28125l-6.265625 2.234375l0.25 1.609375l0 27.578125q-2.8125 0 -3.296875 -0.375q-0.46875 -0.390625 -0.46875 -2.5625l0 -31.4375q2.8125 0 3.28125 0.234375q0.484375 0.21875 0.484375 1.6875l5.765625 -2.359375q5.765625 0 6.90625 2.953125q1.15625 2.9375 1.15625 14.828125l0 17.03125q-2.8125 0 -3.296875 -0.375q-0.484375 -0.390625 -0.484375 -2.5625zm15.913055 -38.171875q-0.859375 0.859375 -2.078125 0.859375q-1.21875 0 -2.09375 -0.859375q-0.859375 -0.875 -0.859375 -2.125q0 -1.25 0.859375 -2.046875q0.875 -0.796875 2.09375 -0.796875q1.21875 0 2.078125 0.828125q0.859375 0.828125 0.859375 2.046875q0 1.21875 -0.859375 2.09375zm-3.9375 38.421875l0 -31.6875q2.8125 0 3.296875 0.359375q0.484375 0.359375 0.484375 2.59375l0 31.671875q-2.828125 0 -3.3125 -0.375q-0.46875 -0.390625 -0.46875 -2.5625zm27.898224 -30.40625q0 3.265625 -6.203125 33.09375l-5.5625 0l-6.53125 -34.375q2.6875 0 3.265625 0.390625q0.578125 0.390625 0.953125 2.5625l4.671875 26.296875l0.84375 0l5.234375 -29.25q3.015625 0 3.203125 0.578125q0.125 0.203125 0.125 0.703125zm20.927979 32.453125q-4.921875 1.09375 -6.875 1.09375q-1.953125 0 -3.015625 -0.109375q-1.046875 -0.09375 -1.921875 -0.5q-0.859375 -0.421875 -1.5 -0.703125q-0.640625 -0.296875 -1.15625 -1.15625q-0.5 -0.859375 -0.828125 -1.40625q-0.3125 -0.546875 -0.515625 -1.890625q-0.1875 -1.34375 -0.3125 -2.171875q-0.125 -0.828125 -0.1875 -2.71875q-0.0625 -1.890625 -0.0625 -3.046875l0 -7.234375q0 -4.21875 0.1875 -5.46875q0.1875 -1.25 0.375 -2.65625q0.203125 -1.40625 0.515625 -2.015625q0.328125 -0.609375 0.828125 -1.5q0.515625 -0.90625 1.15625 -1.25q0.640625 -0.359375 1.5 -0.765625q0.875 -0.421875 1.921875 -0.546875q1.0625 -0.125 2.40625 -0.125q1.34375 0 2.421875 0.1875q1.09375 0.1875 1.828125 0.765625q0.75 0.578125 1.28125 1.09375q0.546875 0.515625 0.890625 1.671875q0.359375 1.140625 0.546875 1.9375q0.203125 0.796875 0.296875 2.5q0.09375 1.703125 0.09375 2.71875l0 3.328125l0.265625 3.453125l-13.0625 0.328125l0.25 1.59375q0 8.1875 0.640625 9.46875q1.03125 2.125 2.375 2.4375q0.890625 0.25 3.484375 0.25q2.59375 0 6.171875 -0.828125l0 3.265625zm-12.28125 -24.703125q0 1.15625 0 3.453125l-0.25 1.609375l9.078125 0l-0.3125 -1.671875q0 -5.125 -0.703125 -7.296875q-0.703125 -2.171875 -3.171875 -2.171875q-2.46875 0 -3.5 1.3125q-1.015625 1.3125 -1.140625 4.765625zm19.138824 22.40625l0 -31.4375q2.8125 0 3.28125 0.234375q0.484375 0.21875 0.484375 1.6875l0 0.703125l5.125 -3.0625q1.09375 0 3.203125 0.4375q0 2.25 -0.421875 2.609375q-0.40625 0.34375 -2.78125 0.34375l-5.4375 3.0l0.3125 1.609375l0 26.8125q-2.8125 0 -3.296875 -0.375q-0.46875 -0.390625 -0.46875 -2.5625zm29.434753 1.28125q-0.765625 0.953125 -2.046875 1.4375q-1.28125 0.46875 -3.140625 0.46875q-1.84375 0 -7.609375 -0.953125l0 -3.390625q0.25 0 3.21875 0.328125q2.984375 0.3125 4.453125 0.3125q3.59375 0 3.59375 -6.65625q0 -0.453125 0 -0.90625q-0.0625 -2.046875 -3.96875 -5.015625q-3.90625 -2.984375 -5.765625 -5.21875q-1.859375 -2.234375 -1.859375 -4.53125q0 -2.3125 0.0625 -3.203125q0.078125 -0.90625 0.453125 -2.25q0.390625 -1.34375 1.15625 -1.921875q1.984375 -1.59375 6.015625 -1.59375l6.078125 0.890625q0 2.8125 -2.296875 2.8125q-0.453125 0 -0.90625 -0.0625l-2.625 -0.375q-3.125 0 -3.828125 1.40625q-0.578125 1.21875 -0.578125 3.5625q0 2.328125 4.984375 6.296875q2.3125 1.71875 3.484375 2.75q1.1875 1.015625 2.3125 2.6875q1.125 1.65625 1.125 3.234375q0 1.5625 -0.078125 2.6875q-0.0625 1.109375 -0.28125 2.65625q-0.21875 1.53125 -0.703125 2.5625q-0.484375 1.015625 -1.25 1.984375zm24.891602 1.015625q-4.921875 1.09375 -6.875 1.09375q-1.953125 0 -3.015625 -0.109375q-1.046875 -0.09375 -1.921875 -0.5q-0.859375 -0.421875 -1.5 -0.703125q-0.640625 -0.296875 -1.15625 -1.15625q-0.5 -0.859375 -0.828125 -1.40625q-0.3125 -0.546875 -0.515625 -1.890625q-0.1875 -1.34375 -0.3125 -2.171875q-0.125 -0.828125 -0.1875 -2.71875q-0.0625 -1.890625 -0.0625 -3.046875l0 -7.234375q0 -4.21875 0.1875 -5.46875q0.1875 -1.25 0.375 -2.65625q0.203125 -1.40625 0.515625 -2.015625q0.328125 -0.609375 0.828125 -1.5q0.515625 -0.90625 1.15625 -1.25q0.640625 -0.359375 1.5 -0.765625q0.875 -0.421875 1.921875 -0.546875q1.0625 -0.125 2.40625 -0.125q1.34375 0 2.421875 0.1875q1.09375 0.1875 1.828125 0.765625q0.75 0.578125 1.28125 1.09375q0.546875 0.515625 0.890625 1.671875q0.359375 1.140625 0.546875 1.9375q0.203125 0.796875 0.296875 2.5q0.09375 1.703125 0.09375 2.71875l0 3.328125l0.265625 3.453125l-13.0625 0.328125l0.25 1.59375q0 8.1875 0.640625 9.46875q1.03125 2.125 2.375 2.4375q0.890625 0.25 3.484375 0.25q2.59375 0 6.171875 -0.828125l0 3.265625zm-12.28125 -24.703125q0 1.15625 0 3.453125l-0.25 1.609375l9.078125 0l-0.3125 -1.671875q0 -5.125 -0.703125 -7.296875q-0.703125 -2.171875 -3.171875 -2.171875q-2.46875 0 -3.5 1.3125q-1.015625 1.3125 -1.140625 4.765625z" fill-rule="nonzero"></path><path fill="#000000" d="m387.94342 328.45367l-0.515625 0q-2.75 0 -3.234375 -0.375q-0.484375 -0.390625 -0.484375 -2.5625l0 -43.140625l16.828125 0l0 3.390625l-12.859375 0l0.265625 1.59375l0 12.734375l-0.265625 1.609375l11.96875 0l0 3.640625l-11.96875 0l0.265625 1.609375l0 21.5zm31.546814 -0.28125q-0.890625 0.28125 -2.015625 0.5q-1.125 0.234375 -2.703125 0.234375q-1.5625 0 -2.8125 -0.203125q-1.234375 -0.1875 -2.171875 -0.828125q-0.921875 -0.640625 -1.53125 -1.171875q-0.609375 -0.546875 -1.03125 -1.953125q-0.40625 -1.421875 -0.640625 -2.375q-0.21875 -0.96875 -0.3125 -3.171875q-0.09375 -2.203125 -0.125 -3.609375q-0.03125 -1.40625 -0.03125 -4.484375q0 -3.078125 0.03125 -4.453125q0.03125 -1.375 0.125 -3.578125q0.09375 -2.203125 0.3125 -3.125q0.234375 -0.9375 0.640625 -2.3125q0.421875 -1.375 1.03125 -1.890625q0.609375 -0.515625 1.5625 -1.09375q1.484375 -1.015625 4.0 -1.015625q2.53125 0 3.65625 0.21875q1.125 0.21875 2.015625 0.484375q0.890625 0.25 1.53125 1.0625q0.640625 0.796875 1.078125 1.34375q0.453125 0.53125 0.703125 1.90625q0.265625 1.375 0.421875 2.25q0.171875 0.859375 0.265625 2.90625q0.09375 2.046875 0.09375 3.328125l0 3.96875q0 0 0 0.25q0 0 0 3.90625q0 4.359375 -0.265625 5.734375q-0.25 1.375 -0.515625 2.78125q-0.25 1.40625 -0.703125 1.953125q-0.4375 0.546875 -1.078125 1.34375q-0.640625 0.796875 -1.53125 1.09375zm0.3125 -15.59375l0 -2.171875q0 -8.390625 -0.703125 -10.5625q-1.015625 -2.75 -4.21875 -2.8125q-2.625 0 -3.515625 1.34375q-0.515625 0.890625 -0.84375 1.671875q-0.3125 0.765625 -0.4375 2.671875q-0.203125 2.828125 -0.203125 5.453125q0 2.625 0 5.28125q0 2.640625 0.0625 4.5625q0.078125 1.921875 0.546875 4.078125q0.484375 2.140625 1.5 2.78125q1.03125 0.640625 2.5625 0.640625q1.546875 0 2.375 -0.28125q0.828125 -0.296875 1.375 -1.09375q0.546875 -0.8125 0.828125 -1.609375q0.296875 -0.796875 0.421875 -2.53125q0.25 -2.484375 0.25 -7.421875zm10.889099 12.9375l0 -31.4375q2.8125 0 3.28125 0.234375q0.484375 0.21875 0.484375 1.6875l0 0.703125l5.125 -3.0625q1.09375 0 3.203125 0.4375q0 2.25 -0.421875 2.609375q-0.40625 0.34375 -2.78125 0.34375l-5.4375 3.0l0.3125 1.609375l0 26.8125q-2.8125 0 -3.296875 -0.375q-0.46875 -0.390625 -0.46875 -2.5625zm44.606598 0l0 -14.15625q0 0 0 -0.5q0 -9.484375 -0.578125 -11.65625q-0.578125 -2.171875 -3.640625 -2.171875l-5.953125 1.984375l0.25 1.59375l0 27.84375q-2.75 0 -3.234375 -0.375q-0.484375 -0.390625 -0.484375 -2.5625l-0.0625 -14.15625q0 -0.25 0 -1.75q0 -1.515625 0 -2.59375q0 -1.09375 -0.03125 -2.078125q-0.03125 -1.0 -0.125 -2.65625q-0.09375 -1.671875 -0.359375 -2.375q-0.25 -0.703125 -0.703125 -1.53125q-0.765625 -1.34375 -2.9375 -1.34375l-6.015625 2.234375l0.25 1.609375l0 27.578125q-2.8125 0 -3.296875 -0.375q-0.46875 -0.390625 -0.46875 -2.5625l0 -31.4375q2.8125 0 3.28125 0.234375q0.484375 0.21875 0.484375 1.6875l5.765625 -2.359375q4.609375 0 6.78125 2.6875l6.859375 -2.6875q5.8125 0 6.9375 2.71875q1.125 2.71875 1.125 15.0625l0 17.03125q-2.890625 0 -3.375 -0.375q-0.46875 -0.390625 -0.46875 -2.5625zm22.076294 -21.1875l0 -3.59375q0 -2.546875 -0.609375 -3.21875q-0.609375 -0.671875 -2.90625 -0.671875l-3.203125 0.640625q-0.640625 0.125 -0.953125 0.125q-2.25 0 -2.25 -2.890625l6.40625 -1.078125q4.796875 0 5.828125 1.28125q0.5 0.640625 0.78125 1.09375q0.296875 0.4375 0.359375 1.59375q0.203125 1.859375 0.203125 4.28125l0 26.5625q-2.890625 0 -3.40625 -0.40625q-0.5 -0.421875 -0.5 -2.796875q-0.640625 0.390625 -1.796875 1.40625q-2.4375 2.25 -4.09375 2.25q-3.90625 0 -4.640625 -2.46875q-0.734375 -2.46875 -0.734375 -13.671875q0 -4.28125 3.703125 -5.6875q3.078125 -1.15625 7.8125 -1.15625l0.25 0l-0.25 -1.59375zm-0.25 5.1875q-3.71875 0 -5.609375 0.546875q-1.890625 0.53125 -1.890625 2.203125q0 11.703125 0.515625 12.796875q0.265625 0.453125 1.15625 0.453125q0.890625 0 1.9375 -0.515625q1.0625 -0.515625 2.25 -1.375q1.1875 -0.875 1.890625 -1.1875l-0.25 -1.59375l0 -9.734375l0.25 -1.59375l-0.25 0zm11.059845 4.34375l0 -14.71875l0.265625 -1.59375l-2.75 0l0 -3.46875l2.75 0l-0.265625 -2.234375l0 -2.8125q2.828125 0 3.296875 0.390625q0.484375 0.375 0.484375 2.546875l-0.25 2.109375l5.890625 0q0 2.375 -0.421875 2.921875q-0.421875 0.546875 -2.65625 0.546875l-2.8125 0l0.25 1.59375l0 14.71875q0 7.296875 0.375 9.484375q0.390625 2.171875 2.1875 2.171875l4.359375 0l0 2.9375l-4.421875 0.3125q-4.421875 0 -5.359375 -2.71875q-0.921875 -2.71875 -0.921875 -12.1875zm19.624756 -26.515625q-0.859375 0.859375 -2.078125 0.859375q-1.21875 0 -2.09375 -0.859375q-0.859375 -0.875 -0.859375 -2.125q0 -1.25 0.859375 -2.046875q0.875 -0.796875 2.09375 -0.796875q1.21875 0 2.078125 0.828125q0.859375 0.828125 0.859375 2.046875q0 1.21875 -0.859375 2.09375zm-3.9375 38.421875l0 -31.6875q2.8125 0 3.296875 0.359375q0.484375 0.359375 0.484375 2.59375l0 31.671875q-2.828125 0 -3.3125 -0.375q-0.46875 -0.390625 -0.46875 -2.5625zm24.898193 2.40625q-0.890625 0.28125 -2.015625 0.5q-1.125 0.234375 -2.703125 0.234375q-1.5625 0 -2.8125 -0.203125q-1.234375 -0.1875 -2.171875 -0.828125q-0.921875 -0.640625 -1.53125 -1.171875q-0.609375 -0.546875 -1.03125 -1.953125q-0.40625 -1.421875 -0.640625 -2.375q-0.21875 -0.96875 -0.3125 -3.171875q-0.09375 -2.203125 -0.125 -3.609375q-0.03125 -1.40625 -0.03125 -4.484375q0 -3.078125 0.03125 -4.453125q0.03125 -1.375 0.125 -3.578125q0.09375 -2.203125 0.3125 -3.125q0.234375 -0.9375 0.640625 -2.3125q0.421875 -1.375 1.03125 -1.890625q0.609375 -0.515625 1.5625 -1.09375q1.484375 -1.015625 4.0 -1.015625q2.53125 0 3.65625 0.21875q1.125 0.21875 2.015625 0.484375q0.890625 0.25 1.53125 1.0625q0.640625 0.796875 1.078125 1.34375q0.453125 0.53125 0.703125 1.90625q0.265625 1.375 0.421875 2.25q0.171875 0.859375 0.265625 2.90625q0.09375 2.046875 0.09375 3.328125l0 3.96875q0 0 0 0.25q0 0 0 3.90625q0 4.359375 -0.265625 5.734375q-0.25 1.375 -0.515625 2.78125q-0.25 1.40625 -0.703125 1.953125q-0.4375 0.546875 -1.078125 1.34375q-0.640625 0.796875 -1.53125 1.09375zm0.3125 -15.59375l0 -2.171875q0 -8.390625 -0.703125 -10.5625q-1.015625 -2.75 -4.21875 -2.8125q-2.625 0 -3.515625 1.34375q-0.515625 0.890625 -0.84375 1.671875q-0.3125 0.765625 -0.4375 2.671875q-0.203125 2.828125 -0.203125 5.453125q0 2.625 0 5.28125q0 2.640625 0.0625 4.5625q0.078125 1.921875 0.546875 4.078125q0.484375 2.140625 1.5 2.78125q1.03125 0.640625 2.5625 0.640625q1.546875 0 2.375 -0.28125q0.828125 -0.296875 1.375 -1.09375q0.546875 -0.8125 0.828125 -1.609375q0.296875 -0.796875 0.421875 -2.53125q0.25 -2.484375 0.25 -7.421875zm24.7016 12.9375l0 -14.15625q0 -9.78125 -0.578125 -12.046875q-0.5625 -2.28125 -3.453125 -2.28125l-6.265625 2.234375l0.25 1.609375l0 27.578125q-2.8125 0 -3.296875 -0.375q-0.46875 -0.390625 -0.46875 -2.5625l0 -31.4375q2.8125 0 3.28125 0.234375q0.484375 0.21875 0.484375 1.6875l5.765625 -2.359375q5.765625 0 6.90625 2.953125q1.15625 2.9375 1.15625 14.828125l0 17.03125q-2.8125 0 -3.296875 -0.375q-0.484375 -0.390625 -0.484375 -2.5625z" fill-rule="nonzero"></path></g></svg>

