<?xml version="1.0" standalone="yes"?>

<svg version="1.1" viewBox="0.0 0.0 960.0 540.0" fill="none" stroke="none" stroke-linecap="square" stroke-miterlimit="10" xmlns="http://www.w3.org/2000/svg" xmlns:xlink="http://www.w3.org/1999/xlink"><clipPath id="p.0"><path d="m0 0l960.0 0l0 540.0l-960.0 0l0 -540.0z" clip-rule="nonzero"></path></clipPath><g clip-path="url(#p.0)"><path fill="#ffffff" d="m0 0l960.0 0l0 540.0l-960.0 0z" fill-rule="evenodd"></path><path fill="#000000" fill-opacity="0.0" d="m288.0853 197.54855l0 -118.10498l113.55643 0" fill-rule="evenodd"></path><path stroke="#cca677" stroke-width="3.0" stroke-miterlimit="8.0" stroke-linecap="butt" d="m288.0853 197.54855l0 -118.10498l113.55643 0" fill-rule="evenodd"></path><path fill="#000000" fill-opacity="0.0" d="m671.9134 342.96326l0 118.10498l-113.55646 0" fill-rule="evenodd"></path><path stroke="#cca677" stroke-width="3.0" stroke-miterlimit="8.0" stroke-linecap="butt" d="m671.9134 342.96326l0 118.10498l-113.55646 0" fill-rule="evenodd"></path><path fill="#000000" fill-opacity="0.0" d="m319.65353 151.62784l320.6929 0l0 161.38583l-320.6929 0z" fill-rule="evenodd"></path><path fill="#000000" d="m393.81238 290.77368l-15.28125 0l0 -40.312515l14.71875 0l0 2.953125l-11.25 0l0.21875 1.40625l0 11.14064l-0.21875 1.40625l10.46875 0l0 3.1875l-10.46875 0l0.21875 1.40625l0 14.21875l-0.21875 1.40625l11.8125 0l0 3.1875zm14.950623 -21.109375l0 -3.140625q0 -2.234375 -0.53125 -2.8125q-0.53125 -0.59375 -2.546875 -0.59375l-2.796875 0.546875q-0.5625 0.125 -0.84375 0.125q-1.953125 0 -1.953125 -2.53125l5.59375 -0.953125q4.203125 0 5.09375 1.125q0.453125 0.5625 0.703125 0.953125q0.25 0.390625 0.3125 1.40625q0.171875 1.609375 0.171875 3.75l0 23.234375q-2.53125 0 -2.984375 -0.359375q-0.4375 -0.375 -0.4375 -2.4375q-0.5625 0.328125 -1.5625 1.234375q-2.140625 1.953125 -3.59375 1.953125q-3.40625 0 -4.0625 -2.15625q-0.640625 -2.15625 -0.640625 -11.953125q0 -3.75 3.25 -4.984375q2.6875 -1.015625 6.828125 -1.015625l0.234375 0l-0.234375 -1.390625zm-0.21875 4.53125q-3.25 0 -4.90625 0.484375q-1.640625 0.46875 -1.640625 1.921875q0 10.25 0.4375 11.203125q0.234375 0.390625 1.015625 0.390625q0.78125 0 1.703125 -0.4375q0.921875 -0.453125 1.953125 -1.203125q1.046875 -0.765625 1.65625 -1.046875l-0.21875 -1.390625l0 -8.515625l0.21875 -1.40625l-0.21875 0zm9.855133 14.0l0 -27.5q2.46875 0 2.875 0.203125q0.421875 0.1875 0.421875 1.484375l0 0.609375l4.484375 -2.6875q0.953125 0 2.796875 0.390625q0 1.96875 -0.359375 2.28125q-0.359375 0.296875 -2.4375 0.296875l-4.75 2.640625l0.265625 1.390625l0 23.46875q-2.453125 0 -2.875 -0.328125q-0.421875 -0.34375 -0.421875 -2.25zm14.89212 -10.1875l0 -12.875l0.234375 -1.40625l-2.40625 0l0 -3.03125l2.40625 0l-0.234375 -1.953125l0 -2.46875q2.46875 0 2.890625 0.34375q0.421875 0.328125 0.421875 2.234375l-0.234375 1.84375l5.15625 0q0 2.078125 -0.359375 2.5625q-0.359375 0.46875 -2.328125 0.46875l-2.46875 0l0.234375 1.40625l0 12.875q0 6.375 0.328125 8.28125q0.34375 1.90625 1.90625 1.90625l3.8125 0l0 2.578125l-3.859375 0.28125q-3.875 0 -4.6875 -2.375q-0.8125 -2.390625 -0.8125 -10.671875zm25.37085 10.1875l0 -12.375q0 -7.171875 -0.5625 -9.859375q-0.5625 -2.6875 -2.96875 -2.6875l-5.484375 1.96875l0.21875 1.390625l0 21.5625q0 1.90625 -0.421875 2.25q-0.40625 0.328125 -2.8749695 0.328125l0 -40.98439q2.4062195 0 2.8280945 0.34375q0.421875 0.328125 0.421875 2.21875l0 10.031265l5.3125 -2.078125q4.765625 0 5.796875 3.09375q1.046875 3.078125 1.046875 12.484375l0 14.890625q-2.46875 0 -2.890625 -0.328125q-0.421875 -0.34375 -0.421875 -2.25zm21.338745 11.203125l0 -10.8125l-4.25 2.578125q-3.765625 0 -5.328125 -1.515625q-0.84375 -0.890625 -1.34375 -1.921875q-0.5 -1.046875 -0.78125 -3.0q-0.453125 -3.078125 -0.453125 -7.78125q0 -4.703125 0.109375 -6.828125q0.125 -2.140625 0.53125 -4.265625q0.421875 -2.125 1.265625 -3.1875q1.84375 -2.359375 5.765625 -2.359375l4.484375 1.515625l0 -1.125q2.40625 0 2.828125 0.3125q0.421875 0.3125 0.421875 2.265625l0 38.703125q-2.40625 0 -2.828125 -0.34375q-0.421875 -0.328125 -0.421875 -2.234375zm-0.0625 -15.125l0 -18.078125l0.28125 -1.40625l-4.421875 -1.515625q-2.859375 0 -3.75 2.921875q-0.890625 2.90625 -0.890625 9.859375q0 6.9375 0.859375 9.546875q0.875 2.59375 3.84375 2.59375l4.421875 -2.515625l-0.34375 -1.40625zm9.747498 -8.671875l0 -14.90625q2.46875 0 2.890625 0.3125q0.421875 0.3125 0.421875 2.265625l0 12.21875q0 6.484375 0.359375 8.875q0.359375 2.375 1.109375 3.109375q0.765625 0.71875 2.046875 0.71875l5.546875 -2.578125l-0.28125 -1.390625l0 -23.53125q2.46875 0 2.890625 0.3125q0.421875 0.3125 0.421875 2.265625l0 27.5q-2.46875 0 -2.890625 -0.28125q-0.421875 -0.28125 -0.421875 -1.953125l-5.03125 2.625q-3.53125 0 -5.546875 -2.1875q-1.296875 -1.453125 -1.453125 -7.390625q-0.0625 -1.84375 -0.0625 -5.984375zm31.356873 -5.9375l0 -3.140625q0 -2.234375 -0.53125 -2.8125q-0.53125 -0.59375 -2.546875 -0.59375l-2.796875 0.546875q-0.5625 0.125 -0.84375 0.125q-1.953125 0 -1.953125 -2.53125l5.59375 -0.953125q4.203125 0 5.09375 1.125q0.453125 0.5625 0.703125 0.953125q0.25 0.390625 0.3125 1.40625q0.171875 1.609375 0.171875 3.75l0 23.234375q-2.53125 0 -2.984375 -0.359375q-0.4375 -0.375 -0.4375 -2.4375q-0.5625 0.328125 -1.5625 1.234375q-2.140625 1.953125 -3.59375 1.953125q-3.40625 0 -4.0625 -2.15625q-0.640625 -2.15625 -0.640625 -11.953125q0 -3.75 3.25 -4.984375q2.6875 -1.015625 6.828125 -1.015625l0.234375 0l-0.234375 -1.390625zm-0.21875 4.53125q-3.25 0 -4.90625 0.484375q-1.640625 0.46875 -1.640625 1.921875q0 10.25 0.4375 11.203125q0.234375 0.390625 1.015625 0.390625q0.78125 0 1.703125 -0.4375q0.921875 -0.453125 1.953125 -1.203125q1.046875 -0.765625 1.65625 -1.046875l-0.21875 -1.390625l0 -8.515625l0.21875 -1.40625l-0.21875 0zm10.136414 14.0l0 -38.406265q2.46875 0 2.875 0.34375q0.421875 0.328125 0.421875 2.21875l0 38.42189q-2.453125 0 -2.875 -0.328125q-0.421875 -0.34375 -0.421875 -2.25zm15.125 2.578125l-3.640625 0l-7.515625 -16.40625l6.734375 -13.671875l3.40625 0l-6.78125 13.671875l7.796875 16.40625zm18.255005 -0.5625q-4.3125 0.953125 -6.03125 0.953125q-1.703125 0 -2.625 -0.09375q-0.921875 -0.078125 -1.6875 -0.4375q-0.75 -0.359375 -1.3125 -0.609375q-0.5625 -0.265625 -1.015625 -1.015625q-0.4375 -0.75 -0.71875 -1.21875q-0.28125 -0.484375 -0.453125 -1.65625q-0.15625 -1.1875 -0.28125 -1.90625q-0.109375 -0.734375 -0.171875 -2.375q-0.046875 -1.65625 -0.046875 -2.671875l0 -6.328125q0 -3.6875 0.171875 -4.78125q0.171875 -1.09375 0.328125 -2.328125q0.171875 -1.234375 0.453125 -1.765625q0.28125 -0.53125 0.71875 -1.3125q0.453125 -0.78125 1.015625 -1.09375q0.5625 -0.3125 1.3125 -0.671875q0.765625 -0.359375 1.6875 -0.46875q0.921875 -0.125 2.09375 -0.125q1.1875 0 2.125 0.171875q0.953125 0.171875 1.59375 0.671875q0.65625 0.5 1.125 0.953125q0.484375 0.453125 0.78125 1.46875q0.3125 1.0 0.484375 1.703125q0.171875 0.6875 0.25 2.171875q0.09375 1.484375 0.09375 2.390625l0 2.90625l0.21875 3.015625l-11.421875 0.28125l0.21875 1.40625q0 7.171875 0.5625 8.28125q0.890625 1.859375 2.078125 2.140625q0.78125 0.21875 3.046875 0.21875q2.265625 0 5.40625 -0.734375l0 2.859375zm-10.75 -21.609375q0 1.0 0 3.015625l-0.234375 1.40625l7.953125 0l-0.28125 -1.453125q0 -4.484375 -0.625 -6.390625q-0.609375 -1.90625 -2.765625 -1.90625q-2.15625 0 -3.046875 1.15625q-0.890625 1.140625 -1.0 4.171875zm27.43988 20.71875q-0.671875 0.84375 -1.796875 1.265625q-1.125 0.40625 -2.75 0.40625q-1.625 0 -6.65625 -0.828125l0 -2.96875q0.21875 0 2.8125 0.28125q2.609375 0.265625 3.90625 0.265625q3.140625 0 3.140625 -5.8125q0 -0.390625 0 -0.78125q-0.0625 -1.796875 -3.484375 -4.390625q-3.40625 -2.609375 -5.03125 -4.5625q-1.625 -1.96875 -1.625 -3.984375q0 -2.015625 0.046875 -2.796875q0.0625 -0.796875 0.390625 -1.96875q0.34375 -1.171875 1.015625 -1.6875q1.734375 -1.390625 5.265625 -1.390625l5.3125 0.78125q0 2.46875 -2.015625 2.46875q-0.390625 0 -0.78125 -0.0625l-2.296875 -0.328125q-2.734375 0 -3.359375 1.234375q-0.5 1.0625 -0.5 3.109375q0 2.03125 4.375 5.5q2.015625 1.515625 3.046875 2.421875q1.03125 0.890625 2.015625 2.34375q0.984375 1.453125 0.984375 2.828125q0 1.375 -0.0625 2.359375q-0.0625 0.96875 -0.265625 2.3125q-0.1875 1.34375 -0.609375 2.25q-0.40625 0.890625 -1.078125 1.734375z" fill-rule="nonzero"></path><path fill="#000000" fill-opacity="0.0" d="m319.65353 327.20004l320.6929 0l0 73.63779l-320.6929 0z" fill-rule="evenodd"></path></g></svg>

