<?xml version="1.0" standalone="yes"?>

<svg version="1.1" viewBox="0.0 0.0 960.0 540.0" fill="none" stroke="none" stroke-linecap="square" stroke-miterlimit="10" xmlns="http://www.w3.org/2000/svg" xmlns:xlink="http://www.w3.org/1999/xlink"><clipPath id="p.0"><path d="m0 0l960.0 0l0 540.0l-960.0 0l0 -540.0z" clip-rule="nonzero"></path></clipPath><g clip-path="url(#p.0)"><path fill="#ffffff" d="m0 0l960.0 0l0 540.0l-960.0 0z" fill-rule="evenodd"></path><path fill="#000000" fill-opacity="0.0" d="m288.0853 197.54855l0 -118.10498l113.55643 0" fill-rule="evenodd"></path><path stroke="#cca677" stroke-width="3.0" stroke-miterlimit="8.0" stroke-linecap="butt" d="m288.0853 197.54855l0 -118.10498l113.55643 0" fill-rule="evenodd"></path><path fill="#000000" fill-opacity="0.0" d="m671.9134 342.96326l0 118.10498l-113.55646 0" fill-rule="evenodd"></path><path stroke="#cca677" stroke-width="3.0" stroke-miterlimit="8.0" stroke-linecap="butt" d="m671.9134 342.96326l0 118.10498l-113.55646 0" fill-rule="evenodd"></path><path fill="#000000" fill-opacity="0.0" d="m319.65353 151.62784l320.6929 0l0 161.38583l-320.6929 0z" fill-rule="evenodd"></path><path fill="#000000" d="m409.5875 290.77368q-2.53125 0 -3.015625 -0.328125q-0.46875 -0.34375 -0.90625 -2.25l-2.46875 -11.140625l-8.515625 0l-3.015625 13.71875q-0.90625 0 -1.578125 0q-0.671875 0 -1.125 -0.109375q-0.4375 -0.109375 -0.546875 -0.28125q-0.109375 -0.171875 -0.109375 -0.5625q0 -0.390625 8.84375 -39.35939l3.578125 0l9.125 40.312515l-0.265625 0zm-6.78125 -16.796875l-0.5 -1.40625l-2.8125 -14.953125l-1.0625 0l-2.734375 14.953125l-0.515625 1.40625l7.625 0zm22.516266 15.34375q-0.671875 0.84375 -1.796875 1.265625q-1.125 0.40625 -2.75 0.40625q-1.625 0 -6.65625 -0.828125l0 -2.96875q0.21875 0 2.8125 0.28125q2.609375 0.265625 3.90625 0.265625q3.140625 0 3.140625 -5.8125q0 -0.390625 0 -0.78125q-0.0625 -1.796875 -3.484375 -4.390625q-3.40625 -2.609375 -5.03125 -4.5625q-1.625 -1.96875 -1.625 -3.984375q0 -2.015625 0.046875 -2.796875q0.0625 -0.796875 0.390625 -1.96875q0.34375 -1.171875 1.015625 -1.6875q1.734375 -1.390625 5.265625 -1.390625l5.3125 0.78125q0 2.46875 -2.015625 2.46875q-0.390625 0 -0.78125 -0.0625l-2.296875 -0.328125q-2.734375 0 -3.359375 1.234375q-0.5 1.0625 -0.5 3.109375q0 2.03125 4.375 5.5q2.015625 1.515625 3.046875 2.421875q1.03125 0.890625 2.015625 2.34375q0.984375 1.453125 0.984375 2.828125q0 1.375 -0.0625 2.359375q-0.0625 0.96875 -0.265625 2.3125q-0.1875 1.34375 -0.609375 2.25q-0.40625 0.890625 -1.078125 1.734375zm7.8289795 -11.3125l0 -12.875l0.234375 -1.40625l-2.40625 0l0 -3.03125l2.40625 0l-0.234375 -1.953125l0 -2.46875q2.46875 0 2.890625 0.34375q0.421875 0.328125 0.421875 2.234375l-0.234375 1.84375l5.15625 0q0 2.078125 -0.359375 2.5625q-0.359375 0.46875 -2.328125 0.46875l-2.46875 0l0.234375 1.40625l0 12.875q0 6.375 0.328125 8.28125q0.34375 1.90625 1.90625 1.90625l3.8125 0l0 2.578125l-3.859375 0.28125q-3.875 0 -4.6875 -2.375q-0.8125 -2.390625 -0.8125 -10.671875zm12.99588 10.1875l0 -27.5q2.46875 0 2.875 0.203125q0.421875 0.1875 0.421875 1.484375l0 0.609375l4.484375 -2.6875q0.953125 0 2.796875 0.390625q0 1.96875 -0.359375 2.28125q-0.359375 0.296875 -2.4375 0.296875l-4.75 2.640625l0.265625 1.390625l0 23.46875q-2.453125 0 -2.875 -0.328125q-0.421875 -0.34375 -0.421875 -2.25zm26.20462 2.328125q-0.78125 0.25 -1.765625 0.4375q-0.96875 0.203125 -2.34375 0.203125q-1.375 0 -2.46875 -0.171875q-1.09375 -0.15625 -1.90625 -0.71875q-0.8125 -0.5625 -1.34375 -1.03125q-0.53125 -0.484375 -0.890625 -1.71875q-0.359375 -1.234375 -0.5625 -2.0625q-0.1875 -0.84375 -0.28125 -2.78125q-0.078125 -1.9375 -0.109375 -3.15625q-0.03125 -1.234375 -0.03125 -3.921875q0 -2.6875 0.03125 -3.890625q0.03125 -1.203125 0.109375 -3.140625q0.09375 -1.9375 0.28125 -2.75q0.203125 -0.8125 0.5625 -2.015625q0.359375 -1.203125 0.890625 -1.640625q0.53125 -0.453125 1.375 -0.953125q1.296875 -0.90625 3.5 -0.90625q2.21875 0 3.1875 0.203125q0.984375 0.1875 1.765625 0.421875q0.78125 0.21875 1.34375 0.921875q0.5625 0.703125 0.953125 1.1875q0.390625 0.46875 0.609375 1.671875q0.234375 1.203125 0.375 1.953125q0.140625 0.75 0.21875 2.546875q0.09375 1.796875 0.09375 2.921875l0 3.46875q0 0 0 0.21875q0 0 0 3.421875q0 3.796875 -0.234375 5.015625q-0.21875 1.203125 -0.453125 2.4375q-0.21875 1.21875 -0.609375 1.703125q-0.390625 0.46875 -0.953125 1.171875q-0.5625 0.703125 -1.34375 0.953125zm0.28125 -13.640625l0 -1.90625q0 -7.328125 -0.609375 -9.234375q-0.90625 -2.40625 -3.703125 -2.46875q-2.296875 0 -3.078125 1.1875q-0.453125 0.78125 -0.734375 1.453125q-0.265625 0.671875 -0.390625 2.34375q-0.15625 2.46875 -0.15625 4.765625q0 2.296875 0 4.625q0 2.3125 0.046875 4.0q0.0625 1.671875 0.484375 3.546875q0.421875 1.875 1.3125 2.4375q0.890625 0.5625 2.234375 0.5625q1.34375 0 2.0625 -0.25q0.734375 -0.25 1.203125 -0.953125q0.484375 -0.703125 0.734375 -1.390625q0.265625 -0.703125 0.375 -2.21875q0.21875 -2.1875 0.21875 -6.5zm21.615875 11.3125l0 -12.375q0 -8.5625 -0.5 -10.546875q-0.5 -2.0 -3.03125 -2.0l-5.484375 1.96875l0.21875 1.390625l0 24.140625q-2.453125 0 -2.875 -0.328125q-0.421875 -0.34375 -0.421875 -2.25l0 -27.5q2.46875 0 2.875 0.203125q0.421875 0.1875 0.421875 1.484375l5.046875 -2.078125q5.046875 0 6.046875 2.578125q1.015625 2.578125 1.015625 13.0l0 14.890625q-2.46875 0 -2.890625 -0.328125q-0.421875 -0.34375 -0.421875 -2.25zm20.886871 2.328125q-0.78125 0.25 -1.765625 0.4375q-0.96875 0.203125 -2.34375 0.203125q-1.375 0 -2.46875 -0.171875q-1.09375 -0.15625 -1.90625 -0.71875q-0.8125 -0.5625 -1.34375 -1.03125q-0.53125 -0.484375 -0.890625 -1.71875q-0.359375 -1.234375 -0.5625 -2.0625q-0.1875 -0.84375 -0.28125 -2.78125q-0.078125 -1.9375 -0.109375 -3.15625q-0.03125 -1.234375 -0.03125 -3.921875q0 -2.6875 0.03125 -3.890625q0.03125 -1.203125 0.109375 -3.140625q0.09375 -1.9375 0.28125 -2.75q0.203125 -0.8125 0.5625 -2.015625q0.359375 -1.203125 0.890625 -1.640625q0.53125 -0.453125 1.375 -0.953125q1.296875 -0.90625 3.5 -0.90625q2.21875 0 3.1875 0.203125q0.984375 0.1875 1.765625 0.421875q0.78125 0.21875 1.34375 0.921875q0.5625 0.703125 0.953125 1.1875q0.390625 0.46875 0.609375 1.671875q0.234375 1.203125 0.375 1.953125q0.140625 0.75 0.21875 2.546875q0.09375 1.796875 0.09375 2.921875l0 3.46875q0 0 0 0.21875q0 0 0 3.421875q0 3.796875 -0.234375 5.015625q-0.21875 1.203125 -0.453125 2.4375q-0.21875 1.21875 -0.609375 1.703125q-0.390625 0.46875 -0.953125 1.171875q-0.5625 0.703125 -1.34375 0.953125zm0.28125 -13.640625l0 -1.90625q0 -7.328125 -0.609375 -9.234375q-0.90625 -2.40625 -3.703125 -2.46875q-2.296875 0 -3.078125 1.1875q-0.453125 0.78125 -0.734375 1.453125q-0.265625 0.671875 -0.390625 2.34375q-0.15625 2.46875 -0.15625 4.765625q0 2.296875 0 4.625q0 2.3125 0.046875 4.0q0.0625 1.671875 0.484375 3.546875q0.421875 1.875 1.3125 2.4375q0.890625 0.5625 2.234375 0.5625q1.34375 0 2.0625 -0.25q0.734375 -0.25 1.203125 -0.953125q0.484375 -0.703125 0.734375 -1.390625q0.265625 -0.703125 0.375 -2.21875q0.21875 -2.1875 0.21875 -6.5zm33.490906 11.3125l0 -12.375q0 0 0 -0.453125q0 -8.28125 -0.515625 -10.1875q-0.5 -1.90625 -3.1875 -1.90625l-5.203125 1.734375l0.21875 1.40625l0 24.359375q-2.40625 0 -2.828125 -0.328125q-0.40625 -0.34375 -0.40625 -2.25l-0.0625 -12.375q0 -0.21875 0 -1.53125q0 -1.328125 0 -2.28125q0 -0.953125 -0.03125 -1.8125q-0.03125 -0.875 -0.109375 -2.328125q-0.078125 -1.453125 -0.3125 -2.0625q-0.21875 -0.625 -0.609375 -1.34375q-0.671875 -1.1875 -2.578125 -1.1875l-5.265625 1.96875l0.21875 1.390625l0 24.140625q-2.453125 0 -2.875 -0.328125q-0.421875 -0.34375 -0.421875 -2.25l0 -27.5q2.46875 0 2.875 0.203125q0.421875 0.1875 0.421875 1.484375l5.046875 -2.078125q4.03125 0 5.9375 2.359375l5.984375 -2.359375q5.109375 0 6.078125 2.390625q0.984375 2.375 0.984375 13.1875l0 14.890625q-2.515625 0 -2.9375 -0.328125q-0.421875 -0.34375 -0.421875 -2.25zm7.8929443 13.78125l0 -2.640625q2.640625 0 4.125 -1.828125q1.484375 -1.8125 1.484375 -4.546875q0 -1.125 -5.9375 -32.265625q2.40625 0 2.875 0.3125q0.484375 0.3125 0.875 2.265625l3.921875 23.578125l0.71875 0l4.09375 -26.15625q2.6875 0 2.859375 0.515625q0.109375 0.15625 0.109375 0.609375q0 2.859375 -5.4375 28.953125q-0.109375 0.5 -0.390625 2.0625q-0.28125 1.578125 -0.421875 2.140625q-0.140625 0.5625 -0.53125 1.8125q-0.390625 1.265625 -0.78125 1.765625q-0.390625 0.5 -1.09375 1.34375q-0.703125 0.84375 -1.53125 1.171875q-2.359375 0.90625 -4.9375 0.90625z" fill-rule="nonzero"></path></g></svg>

