<?xml version="1.0" standalone="yes"?>

<svg version="1.1" viewBox="0.0 0.0 960.0 540.0" fill="none" stroke="none" stroke-linecap="square" stroke-miterlimit="10" xmlns="http://www.w3.org/2000/svg" xmlns:xlink="http://www.w3.org/1999/xlink"><clipPath id="p.0"><path d="m0 0l960.0 0l0 540.0l-960.0 0l0 -540.0z" clip-rule="nonzero"></path></clipPath><g clip-path="url(#p.0)"><path fill="#ffffff" d="m0 0l960.0 0l0 540.0l-960.0 0z" fill-rule="evenodd"></path><path fill="#000000" fill-opacity="0.0" d="m288.0853 197.54855l0 -118.10498l113.55643 0" fill-rule="evenodd"></path><path stroke="#cca677" stroke-width="3.0" stroke-miterlimit="8.0" stroke-linecap="butt" d="m288.0853 197.54855l0 -118.10498l113.55643 0" fill-rule="evenodd"></path><path fill="#000000" fill-opacity="0.0" d="m671.9134 342.96326l0 118.10498l-113.55646 0" fill-rule="evenodd"></path><path stroke="#cca677" stroke-width="3.0" stroke-miterlimit="8.0" stroke-linecap="butt" d="m671.9134 342.96326l0 118.10498l-113.55646 0" fill-rule="evenodd"></path><path fill="#000000" fill-opacity="0.0" d="m319.65353 151.62784l320.6929 0l0 161.38583l-320.6929 0z" fill-rule="evenodd"></path><path fill="#000000" d="m406.01865 290.77368l-0.4375 0l0 -35.95314l0.21875 -1.40625l-6.265625 0l0 -2.953125l15.84375 0l0 2.953125l-6.328125 0l0.21875 1.40625l0 33.375015q0 1.90625 -0.421875 2.25q-0.421875 0.328125 -2.828125 0.328125zm24.819855 -1.453125q-0.671875 0.84375 -1.796875 1.265625q-1.125 0.40625 -2.75 0.40625q-1.625 0 -6.65625 -0.828125l0 -2.96875q0.21875 0 2.8125 0.28125q2.609375 0.265625 3.90625 0.265625q3.140625 0 3.140625 -5.8125q0 -0.390625 0 -0.78125q-0.0625 -1.796875 -3.484375 -4.390625q-3.40625 -2.609375 -5.03125 -4.5625q-1.625 -1.96875 -1.625 -3.984375q0 -2.015625 0.046875 -2.796875q0.0625 -0.796875 0.390625 -1.96875q0.34375 -1.171875 1.015625 -1.6875q1.734375 -1.390625 5.265625 -1.390625l5.3125 0.78125q0 2.46875 -2.015625 2.46875q-0.390625 0 -0.78125 -0.0625l-2.296875 -0.328125q-2.734375 0 -3.359375 1.234375q-0.5 1.0625 -0.5 3.109375q0 2.03125 4.375 5.5q2.015625 1.515625 3.046875 2.421875q1.03125 0.890625 2.015625 2.34375q0.984375 1.453125 0.984375 2.828125q0 1.375 -0.0625 2.359375q-0.0625 0.96875 -0.265625 2.3125q-0.1875 1.34375 -0.609375 2.25q-0.40625 0.890625 -1.078125 1.734375zm7.719635 -13.71875l0 -14.90625q2.46875 0 2.890625 0.3125q0.421875 0.3125 0.421875 2.265625l0 12.21875q0 6.484375 0.359375 8.875q0.359375 2.375 1.109375 3.109375q0.765625 0.71875 2.046875 0.71875l5.546875 -2.578125l-0.28125 -1.390625l0 -23.53125q2.46875 0 2.890625 0.3125q0.421875 0.3125 0.421875 2.265625l0 27.5q-2.46875 0 -2.890625 -0.28125q-0.421875 -0.28125 -0.421875 -1.953125l-5.03125 2.625q-3.53125 0 -5.546875 -2.1875q-1.296875 -1.453125 -1.453125 -7.390625q-0.0625 -1.84375 -0.0625 -5.984375zm33.934998 12.59375l0 -12.375q0 -8.5625 -0.5 -10.546875q-0.5 -2.0 -3.03125 -2.0l-5.484375 1.96875l0.21875 1.390625l0 24.140625q-2.453125 0 -2.875 -0.328125q-0.421875 -0.34375 -0.421875 -2.25l0 -27.5q2.46875 0 2.875 0.203125q0.421875 0.1875 0.421875 1.484375l5.046875 -2.078125q5.046875 0 6.046875 2.578125q1.015625 2.578125 1.015625 13.0l0 14.890625q-2.46875 0 -2.890625 -0.328125q-0.421875 -0.34375 -0.421875 -2.25zm19.261871 -18.53125l0 -3.140625q0 -2.234375 -0.53125 -2.8125q-0.53125 -0.59375 -2.546875 -0.59375l-2.796875 0.546875q-0.5625 0.125 -0.84375 0.125q-1.953125 0 -1.953125 -2.53125l5.59375 -0.953125q4.203125 0 5.09375 1.125q0.453125 0.5625 0.703125 0.953125q0.25 0.390625 0.3125 1.40625q0.171875 1.609375 0.171875 3.75l0 23.234375q-2.53125 0 -2.984375 -0.359375q-0.4375 -0.375 -0.4375 -2.4375q-0.5625 0.328125 -1.5625 1.234375q-2.140625 1.953125 -3.59375 1.953125q-3.40625 0 -4.0625 -2.15625q-0.640625 -2.15625 -0.640625 -11.953125q0 -3.75 3.25 -4.984375q2.6875 -1.015625 6.828125 -1.015625l0.234375 0l-0.234375 -1.390625zm-0.21875 4.53125q-3.25 0 -4.90625 0.484375q-1.640625 0.46875 -1.640625 1.921875q0 10.25 0.4375 11.203125q0.234375 0.390625 1.015625 0.390625q0.78125 0 1.703125 -0.4375q0.921875 -0.453125 1.953125 -1.203125q1.046875 -0.765625 1.65625 -1.046875l-0.21875 -1.390625l0 -8.515625l0.21875 -1.40625l-0.21875 0zm33.823853 14.0l0 -12.375q0 0 0 -0.453125q0 -8.28125 -0.515625 -10.1875q-0.5 -1.90625 -3.1875 -1.90625l-5.203125 1.734375l0.21875 1.40625l0 24.359375q-2.40625 0 -2.828125 -0.328125q-0.40625 -0.34375 -0.40625 -2.25l-0.0625 -12.375q0 -0.21875 0 -1.53125q0 -1.328125 0 -2.28125q0 -0.953125 -0.03125 -1.8125q-0.03125 -0.875 -0.109375 -2.328125q-0.078125 -1.453125 -0.3125 -2.0625q-0.21875 -0.625 -0.609375 -1.34375q-0.671875 -1.1875 -2.578125 -1.1875l-5.265625 1.96875l0.21875 1.390625l0 24.140625q-2.453125 0 -2.875 -0.328125q-0.421875 -0.34375 -0.421875 -2.25l0 -27.5q2.46875 0 2.875 0.203125q0.421875 0.1875 0.421875 1.484375l5.046875 -2.078125q4.03125 0 5.9375 2.359375l5.984375 -2.359375q5.109375 0 6.078125 2.390625q0.984375 2.375 0.984375 13.1875l0 14.890625q-2.515625 0 -2.9375 -0.328125q-0.421875 -0.34375 -0.421875 -2.25zm13.97113 -33.39064q-0.75 0.75 -1.828125 0.75q-1.0625 0 -1.8125 -0.75q-0.75 -0.765625 -0.75 -1.859375q0 -1.09375 0.75 -1.78125q0.75 -0.703125 1.8125 -0.703125q1.078125 0 1.828125 0.734375q0.75 0.71875 0.75 1.78125q0 1.0625 -0.75 1.828125zm-3.4375 33.60939l0 -27.71875q2.453125 0 2.875 0.3125q0.421875 0.3125 0.421875 2.265625l0 27.71875q-2.46875 0 -2.890625 -0.328125q-0.40625 -0.34375 -0.40625 -2.25zm21.336731 0.90625q-0.671875 0.84375 -1.796875 1.265625q-1.125 0.40625 -2.75 0.40625q-1.625 0 -6.65625 -0.828125l0 -2.96875q0.21875 0 2.8125 0.28125q2.609375 0.265625 3.90625 0.265625q3.140625 0 3.140625 -5.8125q0 -0.390625 0 -0.78125q-0.0625 -1.796875 -3.484375 -4.390625q-3.40625 -2.609375 -5.03125 -4.5625q-1.625 -1.96875 -1.625 -3.984375q0 -2.015625 0.046875 -2.796875q0.0625 -0.796875 0.390625 -1.96875q0.34375 -1.171875 1.015625 -1.6875q1.734375 -1.390625 5.265625 -1.390625l5.3125 0.78125q0 2.46875 -2.015625 2.46875q-0.390625 0 -0.78125 -0.0625l-2.296875 -0.328125q-2.734375 0 -3.359375 1.234375q-0.5 1.0625 -0.5 3.109375q0 2.03125 4.375 5.5q2.015625 1.515625 3.046875 2.421875q1.03125 0.890625 2.015625 2.34375q0.984375 1.453125 0.984375 2.828125q0 1.375 -0.0625 2.359375q-0.0625 0.96875 -0.265625 2.3125q-0.1875 1.34375 -0.609375 2.25q-0.40625 0.890625 -1.078125 1.734375z" fill-rule="nonzero"></path><path fill="#000000" fill-opacity="0.0" d="m319.65353 327.20004l320.6929 0l0 73.63779l-320.6929 0z" fill-rule="evenodd"></path></g></svg>

