<?xml version="1.0" standalone="yes"?>

<svg version="1.1" viewBox="0.0 0.0 960.0 540.0" fill="none" stroke="none" stroke-linecap="square" stroke-miterlimit="10" xmlns="http://www.w3.org/2000/svg" xmlns:xlink="http://www.w3.org/1999/xlink"><clipPath id="p.0"><path d="m0 0l960.0 0l0 540.0l-960.0 0l0 -540.0z" clip-rule="nonzero"></path></clipPath><g clip-path="url(#p.0)"><path fill="#ffffff" d="m0 0l960.0 0l0 540.0l-960.0 0z" fill-rule="evenodd"></path><path fill="#000000" fill-opacity="0.0" d="m288.0853 197.54855l0 -118.10498l113.55643 0" fill-rule="evenodd"></path><path stroke="#cca677" stroke-width="3.0" stroke-miterlimit="8.0" stroke-linecap="butt" d="m288.0853 197.54855l0 -118.10498l113.55643 0" fill-rule="evenodd"></path><path fill="#000000" fill-opacity="0.0" d="m671.9134 342.96326l0 118.10498l-113.55646 0" fill-rule="evenodd"></path><path stroke="#cca677" stroke-width="3.0" stroke-miterlimit="8.0" stroke-linecap="butt" d="m671.9134 342.96326l0 118.10498l-113.55646 0" fill-rule="evenodd"></path><path fill="#000000" fill-opacity="0.0" d="m319.65353 191.62784l320.6929 0l0 161.38583l-320.6929 0z" fill-rule="evenodd"></path><path fill="#000000" d="m383.71313 263.77368l-0.234375 0q-2.40625 0 -2.796875 -0.328125q-0.390625 -0.34375 -0.453125 -2.25l0.234375 -29.79689l-0.625 0l-0.21875 1.015625l-5.65625 11.921875l-1.34375 2.578125l-2.234375 0l-1.40625 -2.515625l-5.765625 -11.984375l-0.171875 -1.015625l-0.5625 0l0.171875 29.79689q0 1.90625 -0.390625 2.25q-0.390625 0.328125 -2.796875 0.328125l-0.234375 0l0 -40.312515l0.28125 0q2.40625 0 2.9375 0.34375q0.546875 0.328125 1.5 2.21875l7.109375 15.34375l0.828125 0l8.34375 -17.90625l0.28125 0q2.40625 0 2.796875 0.34375q0.40625 0.328125 0.40625 2.21875l0 37.750015zm11.782135 -35.968765q-0.75 0.75 -1.828125 0.75q-1.0625 0 -1.8125 -0.75q-0.75 -0.765625 -0.75 -1.859375q0 -1.09375 0.75 -1.78125q0.75 -0.703125 1.8125 -0.703125q1.078125 0 1.828125 0.734375q0.75 0.71875 0.75 1.78125q0 1.0625 -0.75 1.828125zm-3.4375 33.60939l0 -27.718765q2.453125 0 2.875 0.3125q0.421875 0.3125 0.421875 2.265625l0 27.718765q-2.46875 0 -2.890625 -0.328125q-0.40625 -0.34375 -0.40625 -2.25zm10.461731 -10.406265l0 -12.875l0.234375 -1.40625l-2.40625 0l0 -3.03125l2.40625 0l-0.234375 -1.953125l0 -2.46875q2.46875 0 2.890625 0.34375q0.421875 0.328125 0.421875 2.234375l-0.234375 1.84375l5.15625 0q0 2.078125 -0.359375 2.5625q-0.359375 0.46875 -2.328125 0.46875l-2.46875 0l0.234375 1.40625l0 12.875q0 6.3750153 0.328125 8.281265q0.34375 1.90625 1.90625 1.90625l3.8125 0l0 2.578125l-3.859375 0.28125q-3.875 0 -4.6875 -2.375q-0.8125 -2.390625 -0.8125 -10.67189zm17.167755 -23.203125q-0.75 0.75 -1.828125 0.75q-1.0625 0 -1.8125 -0.75q-0.75 -0.765625 -0.75 -1.859375q0 -1.09375 0.75 -1.78125q0.75 -0.703125 1.8125 -0.703125q1.078125 0 1.828125 0.734375q0.75 0.71875 0.75 1.78125q0 1.0625 -0.75 1.828125zm-3.4375 33.60939l0 -27.718765q2.453125 0 2.875 0.3125q0.421875 0.3125 0.421875 2.265625l0 27.718765q-2.46875 0 -2.890625 -0.328125q-0.40625 -0.34375 -0.40625 -2.25zm18.868011 13.5625l-2.515625 0q-2.078125 0 -2.453125 -0.34375q-0.359375 -0.328125 -0.359375 -2.296875l5.328125 -0.390625q3.078125 0 3.859375 -1.109375q0.390625 -0.671875 0.46875 -1.328125q0.09375 -0.640625 0.09375 -1.765625q0 -1.109375 -0.09375 -1.625q-0.078125 -0.5 -0.46875 -1.0q-0.671875 -0.953125 -3.6875 -0.953125q-6.609375 0 -7.765625 -0.609375q-1.140625 -0.625 -1.140625 -3.75q0 -3.140625 0.6875 -4.3906403q0.703125 -1.265625 2.171875 -1.9375q-1.625 -1.1875 -2.25 -2.828125q-0.609375 -1.65625 -0.609375 -5.125q0 -3.484375 0.078125 -4.828125q0.09375 -1.34375 0.359375 -2.734375q0.28125 -1.40625 0.8125 -2.125q0.53125 -0.734375 1.4375 -1.40625q1.625 -1.125 5.546875 -1.125l8.671875 0q0 2.078125 -0.359375 2.453125q-0.359375 0.359375 -2.5 0.359375q0.90625 1.671875 1.0625 3.125q0.171875 1.453125 0.171875 5.890625q0 4.421875 -0.171875 5.796875q-0.15625 1.359375 -0.859375 2.59375q-0.703125 1.234375 -2.140625 1.71875q-1.421875 0.46875 -3.328125 0.46875q-1.890625 0 -2.6875 0.03125q-0.78125 0.015625 -1.40625 0.1875q-0.609375 0.17189026 -0.890625 0.31251526q-0.265625 0.140625 -0.4375 0.640625q-0.171875 0.5 -0.171875 0.84375l0 1.734375q0 1.125 0.84375 1.34375q0.84375 0.21875 5.203125 0.21875q4.375 0 5.734375 1.125q1.375 1.125 1.375 5.40625q0 4.28125 -1.40625 5.84375q-1.390625 1.578125 -6.203125 1.578125zm-5.4375 -30.968765q0 4.921875 0.921875 6.828125q0.9375 1.90625 3.84375 1.90625q2.90625 0 3.515625 -1.390625q0.625 -1.40625 0.625 -6.5625q0 -5.15625 -0.453125 -6.4375q-0.71875 -2.078125 -3.75 -2.078125q-3.015625 0 -3.859375 1.40625q-0.84375 1.390625 -0.84375 6.328125zm29.006714 -1.34375l0 -3.140625q0 -2.234375 -0.53125 -2.8125q-0.53125 -0.59375 -2.546875 -0.59375l-2.796875 0.546875q-0.5625 0.125 -0.84375 0.125q-1.953125 0 -1.953125 -2.53125l5.59375 -0.953125q4.203125 0 5.09375 1.125q0.453125 0.5625 0.703125 0.953125q0.25 0.390625 0.3125 1.40625q0.171875 1.609375 0.171875 3.75l0 23.23439q-2.53125 0 -2.984375 -0.359375q-0.4375 -0.375 -0.4375 -2.4375q-0.5625 0.328125 -1.5625 1.234375q-2.140625 1.953125 -3.59375 1.953125q-3.40625 0 -4.0625 -2.15625q-0.640625 -2.15625 -0.640625 -11.95314q0 -3.75 3.25 -4.984375q2.6875 -1.015625 6.828125 -1.015625l0.234375 0l-0.234375 -1.390625zm-0.21875 4.53125q-3.25 0 -4.90625 0.484375q-1.640625 0.46875 -1.640625 1.921875q0 10.250015 0.4375 11.20314q0.234375 0.390625 1.015625 0.390625q0.78125 0 1.703125 -0.4375q0.921875 -0.453125 1.953125 -1.203125q1.046875 -0.765625 1.65625 -1.046875l-0.21875 -1.390625l0 -8.51564l0.21875 -1.40625l-0.21875 0zm9.683258 3.8125l0 -12.875l0.234375 -1.40625l-2.40625 0l0 -3.03125l2.40625 0l-0.234375 -1.953125l0 -2.46875q2.46875 0 2.890625 0.34375q0.421875 0.328125 0.421875 2.234375l-0.234375 1.84375l5.15625 0q0 2.078125 -0.359375 2.5625q-0.359375 0.46875 -2.328125 0.46875l-2.46875 0l0.234375 1.40625l0 12.875q0 6.3750153 0.328125 8.281265q0.34375 1.90625 1.90625 1.90625l3.8125 0l0 2.578125l-3.859375 0.28125q-3.875 0 -4.6875 -2.375q-0.8125 -2.390625 -0.8125 -10.67189zm17.167755 -23.203125q-0.75 0.75 -1.828125 0.75q-1.0625 0 -1.8125 -0.75q-0.75 -0.765625 -0.75 -1.859375q0 -1.09375 0.75 -1.78125q0.75 -0.703125 1.8125 -0.703125q1.078125 0 1.828125 0.734375q0.75 0.71875 0.75 1.78125q0 1.0625 -0.75 1.828125zm-3.4375 33.60939l0 -27.718765q2.453125 0 2.875 0.3125q0.421875 0.3125 0.421875 2.265625l0 27.718765q-2.46875 0 -2.890625 -0.328125q-0.40625 -0.34375 -0.40625 -2.25zm21.774231 2.109375q-0.78125 0.25 -1.765625 0.4375q-0.96875 0.203125 -2.34375 0.203125q-1.375 0 -2.46875 -0.171875q-1.09375 -0.15625 -1.90625 -0.71875q-0.8125 -0.5625 -1.34375 -1.03125q-0.53125 -0.484375 -0.890625 -1.71875q-0.359375 -1.234375 -0.5625 -2.0625q-0.1875 -0.84375 -0.28125 -2.7812653q-0.078125 -1.9375 -0.109375 -3.15625q-0.03125 -1.234375 -0.03125 -3.921875q0 -2.6875 0.03125 -3.890625q0.03125 -1.203125 0.109375 -3.140625q0.09375 -1.9375 0.28125 -2.75q0.203125 -0.8125 0.5625 -2.015625q0.359375 -1.203125 0.890625 -1.640625q0.53125 -0.453125 1.375 -0.953125q1.296875 -0.90625 3.5 -0.90625q2.21875 0 3.1875 0.203125q0.984375 0.1875 1.765625 0.421875q0.78125 0.21875 1.34375 0.921875q0.5625 0.703125 0.953125 1.1875q0.390625 0.46875 0.609375 1.671875q0.234375 1.203125 0.375 1.953125q0.140625 0.75 0.21875 2.546875q0.09375 1.796875 0.09375 2.921875l0 3.46875q0 0 0 0.21875q0 0 0 3.421875q0 3.7968903 -0.234375 5.0156403q-0.21875 1.203125 -0.453125 2.4375q-0.21875 1.21875 -0.609375 1.703125q-0.390625 0.46875 -0.953125 1.171875q-0.5625 0.703125 -1.34375 0.953125zm0.28125 -13.64064l0 -1.90625q0 -7.328125 -0.609375 -9.234375q-0.90625 -2.40625 -3.703125 -2.46875q-2.296875 0 -3.078125 1.1875q-0.453125 0.78125 -0.734375 1.453125q-0.265625 0.671875 -0.390625 2.34375q-0.15625 2.46875 -0.15625 4.765625q0 2.296875 0 4.625q0 2.3125 0.046875 4.0q0.0625 1.6718903 0.484375 3.5468903q0.421875 1.875 1.3125 2.4375q0.890625 0.5625 2.234375 0.5625q1.34375 0 2.0625 -0.25q0.734375 -0.25 1.203125 -0.953125q0.484375 -0.703125 0.734375 -1.390625q0.265625 -0.703125 0.375 -2.21875q0.21875 -2.1875153 0.21875 -6.5000153zm21.615875 11.312515l0 -12.375015q0 -8.5625 -0.5 -10.546875q-0.5 -2.0 -3.03125 -2.0l-5.484375 1.96875l0.21875 1.390625l0 24.14064q-2.453125 0 -2.875 -0.328125q-0.421875 -0.34375 -0.421875 -2.25l0 -27.500015q2.46875 0 2.875 0.203125q0.421875 0.1875 0.421875 1.484375l5.046875 -2.078125q5.046875 0 6.046875 2.578125q1.015625 2.578125 1.015625 13.0l0 14.89064q-2.46875 0 -2.890625 -0.328125q-0.421875 -0.34375 -0.421875 -2.25zm29.901917 -18.531265l0 -3.140625q0 -2.234375 -0.53125 -2.8125q-0.53125 -0.59375 -2.546875 -0.59375l-2.796875 0.546875q-0.5625 0.125 -0.84375 0.125q-1.953125 0 -1.953125 -2.53125l5.59375 -0.953125q4.203125 0 5.09375 1.125q0.453125 0.5625 0.703125 0.953125q0.25 0.390625 0.3125 1.40625q0.171875 1.609375 0.171875 3.75l0 23.23439q-2.53125 0 -2.984375 -0.359375q-0.4375 -0.375 -0.4375 -2.4375q-0.5625 0.328125 -1.5625 1.234375q-2.140625 1.953125 -3.59375 1.953125q-3.40625 0 -4.0625 -2.15625q-0.640625 -2.15625 -0.640625 -11.95314q0 -3.75 3.25 -4.984375q2.6875 -1.015625 6.828125 -1.015625l0.234375 0l-0.234375 -1.390625zm-0.21875 4.53125q-3.25 0 -4.90625 0.484375q-1.640625 0.46875 -1.640625 1.921875q0 10.250015 0.4375 11.20314q0.234375 0.390625 1.015625 0.390625q0.78125 0 1.703125 -0.4375q0.921875 -0.453125 1.953125 -1.203125q1.046875 -0.765625 1.65625 -1.046875l-0.21875 -1.390625l0 -8.51564l0.21875 -1.40625l-0.21875 0zm21.948853 14.000015l0 -12.375015q0 -8.5625 -0.5 -10.546875q-0.5 -2.0 -3.03125 -2.0l-5.484375 1.96875l0.21875 1.390625l0 24.14064q-2.453125 0 -2.875 -0.328125q-0.421875 -0.34375 -0.421875 -2.25l0 -27.500015q2.46875 0 2.875 0.203125q0.421875 0.1875 0.421875 1.484375l5.046875 -2.078125q5.046875 0 6.046875 2.578125q1.015625 2.578125 1.015625 13.0l0 14.89064q-2.46875 0 -2.890625 -0.328125q-0.421875 -0.34375 -0.421875 -2.25zm9.246216 -6.3750153q-0.0625 -1.859375 -0.0625 -5.046875q0 -3.1875 0.03125 -4.421875q0.03125 -1.234375 0.078125 -2.9375q0.0625 -1.71875 0.203125 -2.578125q0.140625 -0.875 0.390625 -2.015625q0.25 -1.15625 0.640625 -1.703125q0.390625 -0.5625 0.953125 -1.234375q0.5625 -0.671875 1.296875 -0.90625q1.953125 -0.671875 4.03125 -0.671875l4.140625 1.578125l0 -12.09375q2.46875 0 2.859375 0.34375q0.390625 0.328125 0.390625 2.21875l0 38.42189q-2.46875 0 -2.859375 -0.359375q-0.390625 -0.375 -0.390625 -2.609375l-4.421875 3.359375q-3.75 0 -5.765625 -2.078125q-1.34375 -1.390625 -1.515625 -7.2656403zm3.4375 -13.453125q-0.140625 2.015625 -0.171875 3.234375q-0.015625 1.203125 -0.015625 6.546875q0 5.3437653 0.5 7.3125153q1.171875 2.5625 3.578125 2.734375l4.59375 -2.515625l-0.21875 -1.40625l0 -18.14064l0.21875 -1.40625l-4.59375 -1.453125q-2.0625 0 -2.84375 1.40625q-0.90625 1.671875 -1.046875 3.6875z" fill-rule="nonzero"></path><path fill="#000000" d="m410.2315 330.77368q-2.53125 0 -3.015625 -0.328125q-0.46875 -0.34375 -0.90625 -2.25l-2.46875 -11.140625l-8.515625 0l-3.015625 13.71875q-0.90625 0 -1.578125 0q-0.671875 0 -1.125 -0.109375q-0.4375 -0.109375 -0.546875 -0.28125q-0.109375 -0.171875 -0.109375 -0.5625q0 -0.390625 8.84375 -39.359375l3.578125 0l9.125 40.3125l-0.265625 0zm-6.78125 -16.796875l-0.5 -1.40625l-2.8125 -14.953125l-1.0625 0l-2.734375 14.953125l-0.515625 1.40625l7.625 0zm11.31311 7.84375q-0.0625 -1.859375 -0.0625 -5.046875q0 -3.1875 0.03125 -4.421875q0.03125 -1.234375 0.078125 -2.9375q0.0625 -1.71875 0.203125 -2.578125q0.140625 -0.875 0.390625 -2.015625q0.25 -1.15625 0.640625 -1.703125q0.390625 -0.5625 0.953125 -1.234375q0.5625 -0.671875 1.296875 -0.90625q1.953125 -0.671875 4.03125 -0.671875l4.140625 1.578125l0 -12.09375q2.46875 0 2.859375 0.34375q0.390625 0.328125 0.390625 2.21875l0 38.421875q-2.46875 0 -2.859375 -0.359375q-0.390625 -0.375 -0.390625 -2.609375l-4.421875 3.359375q-3.75 0 -5.765625 -2.078125q-1.34375 -1.390625 -1.515625 -7.265625zm3.4375 -13.453125q-0.140625 2.015625 -0.171875 3.234375q-0.015625 1.203125 -0.015625 6.546875q0 5.34375 0.5 7.3125q1.171875 2.5625 3.578125 2.734375l4.59375 -2.515625l-0.21875 -1.40625l0 -18.140625l0.21875 -1.40625l-4.59375 -1.453125q-2.0625 0 -2.84375 1.40625q-0.90625 1.671875 -1.046875 3.6875zm27.746124 1.296875l0 -3.140625q0 -2.234375 -0.53125 -2.8125q-0.53125 -0.59375 -2.546875 -0.59375l-2.796875 0.546875q-0.5625 0.125 -0.84375 0.125q-1.953125 0 -1.953125 -2.53125l5.59375 -0.953125q4.203125 0 5.09375 1.125q0.453125 0.5625 0.703125 0.953125q0.25 0.390625 0.3125 1.40625q0.171875 1.609375 0.171875 3.75l0 23.234375q-2.53125 0 -2.984375 -0.359375q-0.4375 -0.375 -0.4375 -2.4375q-0.5625 0.328125 -1.5625 1.234375q-2.140625 1.953125 -3.59375 1.953125q-3.40625 0 -4.0625 -2.15625q-0.640625 -2.15625 -0.640625 -11.953125q0 -3.75 3.25 -4.984375q2.6875 -1.015625 6.828125 -1.015625l0.234375 0l-0.234375 -1.390625zm-0.21875 4.53125q-3.25 0 -4.90625 0.484375q-1.640625 0.46875 -1.640625 1.921875q0 10.25 0.4375 11.203125q0.234375 0.390625 1.015625 0.390625q0.78125 0 1.703125 -0.4375q0.921875 -0.453125 1.953125 -1.203125q1.046875 -0.765625 1.65625 -1.046875l-0.21875 -1.390625l0 -8.515625l0.21875 -1.40625l-0.21875 0zm9.573883 25.203125l0 -38.703125q2.40625 0 2.828125 0.140625q0.421875 0.140625 0.421875 0.984375l4.484375 -1.515625q3.921875 0 5.765625 2.359375q1.515625 1.90625 1.796875 7.453125q0.109375 2.125 0.109375 5.484375q0 3.359375 -0.09375 5.296875q-0.078125 1.921875 -0.359375 3.859375q-0.28125 1.921875 -0.78125 2.96875q-0.5 1.03125 -1.34375 1.921875q-1.5625 1.515625 -5.328125 1.515625l-4.25 -2.578125l0 13.390625q-2.40625 0 -2.828125 -0.34375q-0.421875 -0.328125 -0.421875 -2.234375zm7.390625 -11.203125q2.96875 0 3.828125 -2.59375q0.875 -2.609375 0.875 -9.546875q0 -6.953125 -0.890625 -9.859375q-0.890625 -2.921875 -3.75 -2.921875l-4.375 1.40625l0.234375 1.390625l0 18.203125l-0.28125 1.40625l4.359375 2.515625zm13.998749 -10.1875l0 -12.875l0.234375 -1.40625l-2.40625 0l0 -3.03125l2.40625 0l-0.234375 -1.953125l0 -2.46875q2.46875 0 2.890625 0.34375q0.421875 0.328125 0.421875 2.234375l-0.234375 1.84375l5.15625 0q0 2.078125 -0.359375 2.5625q-0.359375 0.46875 -2.328125 0.46875l-2.46875 0l0.234375 1.40625l0 12.875q0 6.375 0.328125 8.28125q0.34375 1.90625 1.90625 1.90625l3.8125 0l0 2.578125l-3.859375 0.28125q-3.875 0 -4.6875 -2.375q-0.8125 -2.390625 -0.8125 -10.671875zm22.511505 -8.34375l0 -3.140625q0 -2.234375 -0.53125 -2.8125q-0.53125 -0.59375 -2.546875 -0.59375l-2.796875 0.546875q-0.5625 0.125 -0.84375 0.125q-1.953125 0 -1.953125 -2.53125l5.59375 -0.953125q4.203125 0 5.09375 1.125q0.453125 0.5625 0.703125 0.953125q0.25 0.390625 0.3125 1.40625q0.171875 1.609375 0.171875 3.75l0 23.234375q-2.53125 0 -2.984375 -0.359375q-0.4375 -0.375 -0.4375 -2.4375q-0.5625 0.328125 -1.5625 1.234375q-2.140625 1.953125 -3.59375 1.953125q-3.40625 0 -4.0625 -2.15625q-0.640625 -2.15625 -0.640625 -11.953125q0 -3.75 3.25 -4.984375q2.6875 -1.015625 6.828125 -1.015625l0.234375 0l-0.234375 -1.390625zm-0.21875 4.53125q-3.25 0 -4.90625 0.484375q-1.640625 0.46875 -1.640625 1.921875q0 10.25 0.4375 11.203125q0.234375 0.390625 1.015625 0.390625q0.78125 0 1.703125 -0.4375q0.921875 -0.453125 1.953125 -1.203125q1.046875 -0.765625 1.65625 -1.046875l-0.21875 -1.390625l0 -8.515625l0.21875 -1.40625l-0.21875 0zm9.683228 3.8125l0 -12.875l0.234375 -1.40625l-2.40625 0l0 -3.03125l2.40625 0l-0.234375 -1.953125l0 -2.46875q2.46875 0 2.890625 0.34375q0.421875 0.328125 0.421875 2.234375l-0.234375 1.84375l5.15625 0q0 2.078125 -0.359375 2.5625q-0.359375 0.46875 -2.328125 0.46875l-2.46875 0l0.234375 1.40625l0 12.875q0 6.375 0.328125 8.28125q0.34375 1.90625 1.90625 1.90625l3.8125 0l0 2.578125l-3.859375 0.28125q-3.875 0 -4.6875 -2.375q-0.8125 -2.390625 -0.8125 -10.671875zm17.167786 -23.203125q-0.75 0.75 -1.828125 0.75q-1.0625 0 -1.8125 -0.75q-0.75 -0.765625 -0.75 -1.859375q0 -1.09375 0.75 -1.78125q0.75 -0.703125 1.8125 -0.703125q1.078125 0 1.828125 0.734375q0.75 0.71875 0.75 1.78125q0 1.0625 -0.75 1.828125zm-3.4375 33.609375l0 -27.71875q2.453125 0 2.875 0.3125q0.421875 0.3125 0.421875 2.265625l0 27.71875q-2.46875 0 -2.890625 -0.328125q-0.40625 -0.34375 -0.40625 -2.25zm21.774231 2.109375q-0.78125 0.25 -1.765625 0.4375q-0.96875 0.203125 -2.34375 0.203125q-1.375 0 -2.46875 -0.171875q-1.09375 -0.15625 -1.90625 -0.71875q-0.8125 -0.5625 -1.34375 -1.03125q-0.53125 -0.484375 -0.890625 -1.71875q-0.359375 -1.234375 -0.5625 -2.0625q-0.1875 -0.84375 -0.28125 -2.78125q-0.078125 -1.9375 -0.109375 -3.15625q-0.03125 -1.234375 -0.03125 -3.921875q0 -2.6875 0.03125 -3.890625q0.03125 -1.203125 0.109375 -3.140625q0.09375 -1.9375 0.28125 -2.75q0.203125 -0.8125 0.5625 -2.015625q0.359375 -1.203125 0.890625 -1.640625q0.53125 -0.453125 1.375 -0.953125q1.296875 -0.90625 3.5 -0.90625q2.21875 0 3.1875 0.203125q0.984375 0.1875 1.765625 0.421875q0.78125 0.21875 1.34375 0.921875q0.5625 0.703125 0.953125 1.1875q0.390625 0.46875 0.609375 1.671875q0.234375 1.203125 0.375 1.953125q0.140625 0.75 0.21875 2.546875q0.09375 1.796875 0.09375 2.921875l0 3.46875q0 0 0 0.21875q0 0 0 3.421875q0 3.796875 -0.234375 5.015625q-0.21875 1.203125 -0.453125 2.4375q-0.21875 1.21875 -0.609375 1.703125q-0.390625 0.46875 -0.953125 1.171875q-0.5625 0.703125 -1.34375 0.953125zm0.28125 -13.640625l0 -1.90625q0 -7.328125 -0.609375 -9.234375q-0.90625 -2.40625 -3.703125 -2.46875q-2.296875 0 -3.078125 1.1875q-0.453125 0.78125 -0.734375 1.453125q-0.265625 0.671875 -0.390625 2.34375q-0.15625 2.46875 -0.15625 4.765625q0 2.296875 0 4.625q0 2.3125 0.046875 4.0q0.0625 1.671875 0.484375 3.546875q0.421875 1.875 1.3125 2.4375q0.890625 0.5625 2.234375 0.5625q1.34375 0 2.0625 -0.25q0.734375 -0.25 1.203125 -0.953125q0.484375 -0.703125 0.734375 -1.390625q0.265625 -0.703125 0.375 -2.21875q0.21875 -2.1875 0.21875 -6.5zm21.615845 11.3125l0 -12.375q0 -8.5625 -0.5 -10.546875q-0.5 -2.0 -3.03125 -2.0l-5.484375 1.96875l0.21875 1.390625l0 24.140625q-2.453125 0 -2.875 -0.328125q-0.421875 -0.34375 -0.421875 -2.25l0 -27.5q2.46875 0 2.875 0.203125q0.421875 0.1875 0.421875 1.484375l5.046875 -2.078125q5.046875 0 6.046875 2.578125q1.015625 2.578125 1.015625 13.0l0 14.890625q-2.46875 0 -2.890625 -0.328125q-0.421875 -0.34375 -0.421875 -2.25z" fill-rule="nonzero"></path></g></svg>

